G75*
G70*
%OFA0B0*%
%FSLAX24Y24*%
%IPPOS*%
%LPD*%
%AMOC8*
5,1,8,0,0,1.08239X$1,22.5*
%
%ADD10C,0.0000*%
%ADD11C,0.1340*%
%ADD12C,0.0680*%
%ADD13C,0.1025*%
%ADD14C,0.1080*%
%ADD15OC8,0.0600*%
%ADD16C,0.0860*%
%ADD17C,0.0631*%
%ADD18R,0.0476X0.0476*%
D10*
X004880Y000100D02*
X004880Y031596D01*
X044250Y031596D01*
X044250Y000100D01*
X004880Y000100D01*
X006000Y001850D02*
X006002Y001900D01*
X006008Y001950D01*
X006018Y001999D01*
X006032Y002047D01*
X006049Y002094D01*
X006070Y002139D01*
X006095Y002183D01*
X006123Y002224D01*
X006155Y002263D01*
X006189Y002300D01*
X006226Y002334D01*
X006266Y002364D01*
X006308Y002391D01*
X006352Y002415D01*
X006398Y002436D01*
X006445Y002452D01*
X006493Y002465D01*
X006543Y002474D01*
X006592Y002479D01*
X006643Y002480D01*
X006693Y002477D01*
X006742Y002470D01*
X006791Y002459D01*
X006839Y002444D01*
X006885Y002426D01*
X006930Y002404D01*
X006973Y002378D01*
X007014Y002349D01*
X007053Y002317D01*
X007089Y002282D01*
X007121Y002244D01*
X007151Y002204D01*
X007178Y002161D01*
X007201Y002117D01*
X007220Y002071D01*
X007236Y002023D01*
X007248Y001974D01*
X007256Y001925D01*
X007260Y001875D01*
X007260Y001825D01*
X007256Y001775D01*
X007248Y001726D01*
X007236Y001677D01*
X007220Y001629D01*
X007201Y001583D01*
X007178Y001539D01*
X007151Y001496D01*
X007121Y001456D01*
X007089Y001418D01*
X007053Y001383D01*
X007014Y001351D01*
X006973Y001322D01*
X006930Y001296D01*
X006885Y001274D01*
X006839Y001256D01*
X006791Y001241D01*
X006742Y001230D01*
X006693Y001223D01*
X006643Y001220D01*
X006592Y001221D01*
X006543Y001226D01*
X006493Y001235D01*
X006445Y001248D01*
X006398Y001264D01*
X006352Y001285D01*
X006308Y001309D01*
X006266Y001336D01*
X006226Y001366D01*
X006189Y001400D01*
X006155Y001437D01*
X006123Y001476D01*
X006095Y001517D01*
X006070Y001561D01*
X006049Y001606D01*
X006032Y001653D01*
X006018Y001701D01*
X006008Y001750D01*
X006002Y001800D01*
X006000Y001850D01*
X042250Y001850D02*
X042252Y001900D01*
X042258Y001950D01*
X042268Y001999D01*
X042282Y002047D01*
X042299Y002094D01*
X042320Y002139D01*
X042345Y002183D01*
X042373Y002224D01*
X042405Y002263D01*
X042439Y002300D01*
X042476Y002334D01*
X042516Y002364D01*
X042558Y002391D01*
X042602Y002415D01*
X042648Y002436D01*
X042695Y002452D01*
X042743Y002465D01*
X042793Y002474D01*
X042842Y002479D01*
X042893Y002480D01*
X042943Y002477D01*
X042992Y002470D01*
X043041Y002459D01*
X043089Y002444D01*
X043135Y002426D01*
X043180Y002404D01*
X043223Y002378D01*
X043264Y002349D01*
X043303Y002317D01*
X043339Y002282D01*
X043371Y002244D01*
X043401Y002204D01*
X043428Y002161D01*
X043451Y002117D01*
X043470Y002071D01*
X043486Y002023D01*
X043498Y001974D01*
X043506Y001925D01*
X043510Y001875D01*
X043510Y001825D01*
X043506Y001775D01*
X043498Y001726D01*
X043486Y001677D01*
X043470Y001629D01*
X043451Y001583D01*
X043428Y001539D01*
X043401Y001496D01*
X043371Y001456D01*
X043339Y001418D01*
X043303Y001383D01*
X043264Y001351D01*
X043223Y001322D01*
X043180Y001296D01*
X043135Y001274D01*
X043089Y001256D01*
X043041Y001241D01*
X042992Y001230D01*
X042943Y001223D01*
X042893Y001220D01*
X042842Y001221D01*
X042793Y001226D01*
X042743Y001235D01*
X042695Y001248D01*
X042648Y001264D01*
X042602Y001285D01*
X042558Y001309D01*
X042516Y001336D01*
X042476Y001366D01*
X042439Y001400D01*
X042405Y001437D01*
X042373Y001476D01*
X042345Y001517D01*
X042320Y001561D01*
X042299Y001606D01*
X042282Y001653D01*
X042268Y001701D01*
X042258Y001750D01*
X042252Y001800D01*
X042250Y001850D01*
X042000Y030100D02*
X042002Y030150D01*
X042008Y030200D01*
X042018Y030249D01*
X042032Y030297D01*
X042049Y030344D01*
X042070Y030389D01*
X042095Y030433D01*
X042123Y030474D01*
X042155Y030513D01*
X042189Y030550D01*
X042226Y030584D01*
X042266Y030614D01*
X042308Y030641D01*
X042352Y030665D01*
X042398Y030686D01*
X042445Y030702D01*
X042493Y030715D01*
X042543Y030724D01*
X042592Y030729D01*
X042643Y030730D01*
X042693Y030727D01*
X042742Y030720D01*
X042791Y030709D01*
X042839Y030694D01*
X042885Y030676D01*
X042930Y030654D01*
X042973Y030628D01*
X043014Y030599D01*
X043053Y030567D01*
X043089Y030532D01*
X043121Y030494D01*
X043151Y030454D01*
X043178Y030411D01*
X043201Y030367D01*
X043220Y030321D01*
X043236Y030273D01*
X043248Y030224D01*
X043256Y030175D01*
X043260Y030125D01*
X043260Y030075D01*
X043256Y030025D01*
X043248Y029976D01*
X043236Y029927D01*
X043220Y029879D01*
X043201Y029833D01*
X043178Y029789D01*
X043151Y029746D01*
X043121Y029706D01*
X043089Y029668D01*
X043053Y029633D01*
X043014Y029601D01*
X042973Y029572D01*
X042930Y029546D01*
X042885Y029524D01*
X042839Y029506D01*
X042791Y029491D01*
X042742Y029480D01*
X042693Y029473D01*
X042643Y029470D01*
X042592Y029471D01*
X042543Y029476D01*
X042493Y029485D01*
X042445Y029498D01*
X042398Y029514D01*
X042352Y029535D01*
X042308Y029559D01*
X042266Y029586D01*
X042226Y029616D01*
X042189Y029650D01*
X042155Y029687D01*
X042123Y029726D01*
X042095Y029767D01*
X042070Y029811D01*
X042049Y029856D01*
X042032Y029903D01*
X042018Y029951D01*
X042008Y030000D01*
X042002Y030050D01*
X042000Y030100D01*
X005500Y030350D02*
X005502Y030400D01*
X005508Y030450D01*
X005518Y030499D01*
X005532Y030547D01*
X005549Y030594D01*
X005570Y030639D01*
X005595Y030683D01*
X005623Y030724D01*
X005655Y030763D01*
X005689Y030800D01*
X005726Y030834D01*
X005766Y030864D01*
X005808Y030891D01*
X005852Y030915D01*
X005898Y030936D01*
X005945Y030952D01*
X005993Y030965D01*
X006043Y030974D01*
X006092Y030979D01*
X006143Y030980D01*
X006193Y030977D01*
X006242Y030970D01*
X006291Y030959D01*
X006339Y030944D01*
X006385Y030926D01*
X006430Y030904D01*
X006473Y030878D01*
X006514Y030849D01*
X006553Y030817D01*
X006589Y030782D01*
X006621Y030744D01*
X006651Y030704D01*
X006678Y030661D01*
X006701Y030617D01*
X006720Y030571D01*
X006736Y030523D01*
X006748Y030474D01*
X006756Y030425D01*
X006760Y030375D01*
X006760Y030325D01*
X006756Y030275D01*
X006748Y030226D01*
X006736Y030177D01*
X006720Y030129D01*
X006701Y030083D01*
X006678Y030039D01*
X006651Y029996D01*
X006621Y029956D01*
X006589Y029918D01*
X006553Y029883D01*
X006514Y029851D01*
X006473Y029822D01*
X006430Y029796D01*
X006385Y029774D01*
X006339Y029756D01*
X006291Y029741D01*
X006242Y029730D01*
X006193Y029723D01*
X006143Y029720D01*
X006092Y029721D01*
X006043Y029726D01*
X005993Y029735D01*
X005945Y029748D01*
X005898Y029764D01*
X005852Y029785D01*
X005808Y029809D01*
X005766Y029836D01*
X005726Y029866D01*
X005689Y029900D01*
X005655Y029937D01*
X005623Y029976D01*
X005595Y030017D01*
X005570Y030061D01*
X005549Y030106D01*
X005532Y030153D01*
X005518Y030201D01*
X005508Y030250D01*
X005502Y030300D01*
X005500Y030350D01*
D11*
X006130Y030350D03*
X042630Y030100D03*
X042880Y001850D03*
X006630Y001850D03*
D12*
X006580Y003850D02*
X007180Y003850D01*
X007180Y004850D02*
X006580Y004850D01*
X006580Y005850D02*
X007180Y005850D01*
X007180Y008350D02*
X006580Y008350D01*
X006580Y009350D02*
X007180Y009350D01*
X007180Y010350D02*
X006580Y010350D01*
X006580Y013350D02*
X007180Y013350D01*
X007180Y014350D02*
X006580Y014350D01*
X006580Y015350D02*
X007180Y015350D01*
X007180Y016350D02*
X006580Y016350D01*
X006580Y018850D02*
X007180Y018850D01*
X007180Y019850D02*
X006580Y019850D01*
X006580Y020850D02*
X007180Y020850D01*
X007180Y021850D02*
X006580Y021850D01*
X013080Y017100D02*
X013680Y017100D01*
X013680Y016100D02*
X013080Y016100D01*
X013080Y015100D02*
X013680Y015100D01*
X013680Y014100D02*
X013080Y014100D01*
X013080Y013100D02*
X013680Y013100D01*
X013680Y012100D02*
X013080Y012100D01*
X013080Y011100D02*
X013680Y011100D01*
X013680Y010100D02*
X013080Y010100D01*
X013080Y009100D02*
X013680Y009100D01*
X013680Y008100D02*
X013080Y008100D01*
X013080Y007100D02*
X013680Y007100D01*
X013680Y006100D02*
X013080Y006100D01*
X013080Y005100D02*
X013680Y005100D01*
X013680Y004100D02*
X013080Y004100D01*
X013080Y003100D02*
X013680Y003100D01*
X011630Y002400D02*
X011630Y001800D01*
X010630Y001800D02*
X010630Y002400D01*
X009630Y002400D02*
X009630Y001800D01*
X022080Y003100D02*
X022680Y003100D01*
X022680Y004100D02*
X022080Y004100D01*
X022080Y005100D02*
X022680Y005100D01*
X022680Y006100D02*
X022080Y006100D01*
X022080Y007100D02*
X022680Y007100D01*
X022680Y008100D02*
X022080Y008100D01*
X022080Y009100D02*
X022680Y009100D01*
X022680Y010100D02*
X022080Y010100D01*
X022080Y011100D02*
X022680Y011100D01*
X022680Y012100D02*
X022080Y012100D01*
X022080Y013100D02*
X022680Y013100D01*
X022680Y014100D02*
X022080Y014100D01*
X022080Y015100D02*
X022680Y015100D01*
X022680Y016100D02*
X022080Y016100D01*
X022080Y017100D02*
X022680Y017100D01*
X018130Y022050D02*
X018130Y022650D01*
X017130Y022650D02*
X017130Y022050D01*
X016130Y022050D02*
X016130Y022650D01*
X015130Y022650D02*
X015130Y022050D01*
X014130Y022050D02*
X014130Y022650D01*
X019830Y023600D02*
X020430Y023600D01*
X020430Y024600D02*
X019830Y024600D01*
X019830Y025600D02*
X020430Y025600D01*
X024990Y004930D02*
X024990Y004330D01*
X026770Y004330D02*
X026770Y004930D01*
X026770Y002370D02*
X026770Y001770D01*
X024990Y001770D02*
X024990Y002370D01*
X031130Y002150D02*
X031130Y001550D01*
X032130Y001550D02*
X032130Y002150D01*
X033130Y002150D02*
X033130Y001550D01*
X038880Y001550D02*
X038880Y002150D01*
X039880Y002150D02*
X039880Y001550D01*
X040880Y001550D02*
X040880Y002150D01*
D13*
X014622Y024128D02*
X014622Y025073D01*
X013126Y025073D02*
X013126Y024128D01*
X011630Y024128D02*
X011630Y025073D01*
D14*
X006630Y025600D03*
X006630Y023600D03*
D15*
X024380Y020600D03*
X025380Y020600D03*
X034130Y020850D03*
X034130Y019850D03*
X041380Y019850D03*
X041380Y020850D03*
X009380Y009850D03*
X009380Y008850D03*
X009630Y005100D03*
X009630Y004100D03*
D16*
X030490Y003850D02*
X031270Y003850D01*
X033490Y003850D02*
X034270Y003850D01*
X034270Y005850D02*
X033490Y005850D01*
X031270Y005850D02*
X030490Y005850D01*
X030490Y007850D02*
X031270Y007850D01*
X033490Y007850D02*
X034270Y007850D01*
X037990Y007850D02*
X038770Y007850D01*
X040990Y007850D02*
X041770Y007850D01*
X041770Y005850D02*
X040990Y005850D01*
X038770Y005850D02*
X037990Y005850D01*
X037990Y003850D02*
X038770Y003850D01*
X040990Y003850D02*
X041770Y003850D01*
X041770Y013850D02*
X040990Y013850D01*
X038770Y013850D02*
X037990Y013850D01*
X034270Y013850D02*
X033490Y013850D01*
X031270Y013850D02*
X030490Y013850D01*
D17*
X011819Y029850D03*
X010441Y029850D03*
D18*
X007880Y027100D03*
X013880Y020600D03*
X012130Y019350D03*
X011380Y017350D03*
X019130Y015600D03*
X022130Y018850D03*
X021380Y021350D03*
X023630Y022350D03*
X028880Y019350D03*
X037380Y022350D03*
X020130Y008100D03*
X025880Y005850D03*
M02*
