%
M48
M72
T01C0.0236
T02C0.0315
T03C0.0320
T04C0.0400
T05C0.0520
T06C0.0630
T07C0.1260
%
T01
X7880Y27100
X13880Y20600
X12130Y19350
X11380Y17350
X19130Y15600
X22130Y18850
X21380Y21350
X23630Y22350
X28880Y19350
X37380Y22350
X20130Y8100
X25880Y5850
T02
X11819Y29850
X10441Y29850
T03
X24380Y20600
X25380Y20600
X34130Y20850
X34130Y19850
X41380Y19850
X41380Y20850
X9380Y9850
X9380Y8850
X9630Y5100
X9630Y4100
T04
X6880Y3850
X6880Y4850
X6880Y5850
X6880Y8350
X6880Y9350
X6880Y10350
X6880Y13350
X6880Y14350
X6880Y15350
X6880Y16350
X6880Y18850
X6880Y19850
X6880Y20850
X6880Y21850
X13380Y17100
X13380Y16100
X13380Y15100
X13380Y14100
X13380Y13100
X13380Y12100
X13380Y11100
X13380Y10100
X13380Y9100
X13380Y8100
X13380Y7100
X13380Y6100
X13380Y5100
X13380Y4100
X13380Y3100
X11630Y2100
X10630Y2100
X9630Y2100
X22380Y3100
X22380Y4100
X22380Y5100
X22380Y6100
X22380Y7100
X22380Y8100
X22380Y9100
X22380Y10100
X22380Y11100
X22380Y12100
X22380Y13100
X22380Y14100
X22380Y15100
X22380Y16100
X22380Y17100
X18130Y22350
X17130Y22350
X16130Y22350
X15130Y22350
X14130Y22350
X20130Y23600
X20130Y24600
X20130Y25600
X24990Y4630
X26770Y4630
X26770Y2070
X24990Y2070
X31130Y1850
X32130Y1850
X33130Y1850
X38880Y1850
X39880Y1850
X40880Y1850
T05
X30880Y13850
X33880Y13850
X38380Y13850
X41380Y13850
X41380Y7850
X41380Y5850
X41380Y3850
X38380Y3850
X38380Y5850
X38380Y7850
X33880Y7850
X33880Y5850
X33880Y3850
X30880Y3850
X30880Y5850
X30880Y7850
T06
X6630Y25600
X6630Y23600
X11630Y24600
X13126Y24600
X14622Y24600
T07
X6630Y1850
X42880Y1850
X42630Y30100
X6130Y30350
M30
