G75*
G70*
%OFA0B0*%
%FSLAX24Y24*%
%IPPOS*%
%LPD*%
%AMOC8*
5,1,8,0,0,1.08239X$1,22.5*
%
%ADD10C,0.0000*%
%ADD11C,0.0070*%
%ADD12C,0.0600*%
%ADD13C,0.0945*%
%ADD14C,0.1000*%
%ADD15R,0.0591X0.0512*%
%ADD16OC8,0.0520*%
%ADD17R,0.0512X0.0591*%
%ADD18R,0.0551X0.0394*%
%ADD19C,0.0780*%
%ADD20R,0.0512X0.0630*%
%ADD21C,0.0551*%
%ADD22R,0.0396X0.0396*%
%ADD23C,0.0320*%
%ADD24C,0.0100*%
%ADD25C,0.0160*%
%ADD26C,0.0660*%
D10*
X004880Y000100D02*
X004880Y031596D01*
X044250Y031596D01*
X044250Y000100D01*
X004880Y000100D01*
X006000Y001850D02*
X006002Y001900D01*
X006008Y001950D01*
X006018Y001999D01*
X006032Y002047D01*
X006049Y002094D01*
X006070Y002139D01*
X006095Y002183D01*
X006123Y002224D01*
X006155Y002263D01*
X006189Y002300D01*
X006226Y002334D01*
X006266Y002364D01*
X006308Y002391D01*
X006352Y002415D01*
X006398Y002436D01*
X006445Y002452D01*
X006493Y002465D01*
X006543Y002474D01*
X006592Y002479D01*
X006643Y002480D01*
X006693Y002477D01*
X006742Y002470D01*
X006791Y002459D01*
X006839Y002444D01*
X006885Y002426D01*
X006930Y002404D01*
X006973Y002378D01*
X007014Y002349D01*
X007053Y002317D01*
X007089Y002282D01*
X007121Y002244D01*
X007151Y002204D01*
X007178Y002161D01*
X007201Y002117D01*
X007220Y002071D01*
X007236Y002023D01*
X007248Y001974D01*
X007256Y001925D01*
X007260Y001875D01*
X007260Y001825D01*
X007256Y001775D01*
X007248Y001726D01*
X007236Y001677D01*
X007220Y001629D01*
X007201Y001583D01*
X007178Y001539D01*
X007151Y001496D01*
X007121Y001456D01*
X007089Y001418D01*
X007053Y001383D01*
X007014Y001351D01*
X006973Y001322D01*
X006930Y001296D01*
X006885Y001274D01*
X006839Y001256D01*
X006791Y001241D01*
X006742Y001230D01*
X006693Y001223D01*
X006643Y001220D01*
X006592Y001221D01*
X006543Y001226D01*
X006493Y001235D01*
X006445Y001248D01*
X006398Y001264D01*
X006352Y001285D01*
X006308Y001309D01*
X006266Y001336D01*
X006226Y001366D01*
X006189Y001400D01*
X006155Y001437D01*
X006123Y001476D01*
X006095Y001517D01*
X006070Y001561D01*
X006049Y001606D01*
X006032Y001653D01*
X006018Y001701D01*
X006008Y001750D01*
X006002Y001800D01*
X006000Y001850D01*
X042250Y001850D02*
X042252Y001900D01*
X042258Y001950D01*
X042268Y001999D01*
X042282Y002047D01*
X042299Y002094D01*
X042320Y002139D01*
X042345Y002183D01*
X042373Y002224D01*
X042405Y002263D01*
X042439Y002300D01*
X042476Y002334D01*
X042516Y002364D01*
X042558Y002391D01*
X042602Y002415D01*
X042648Y002436D01*
X042695Y002452D01*
X042743Y002465D01*
X042793Y002474D01*
X042842Y002479D01*
X042893Y002480D01*
X042943Y002477D01*
X042992Y002470D01*
X043041Y002459D01*
X043089Y002444D01*
X043135Y002426D01*
X043180Y002404D01*
X043223Y002378D01*
X043264Y002349D01*
X043303Y002317D01*
X043339Y002282D01*
X043371Y002244D01*
X043401Y002204D01*
X043428Y002161D01*
X043451Y002117D01*
X043470Y002071D01*
X043486Y002023D01*
X043498Y001974D01*
X043506Y001925D01*
X043510Y001875D01*
X043510Y001825D01*
X043506Y001775D01*
X043498Y001726D01*
X043486Y001677D01*
X043470Y001629D01*
X043451Y001583D01*
X043428Y001539D01*
X043401Y001496D01*
X043371Y001456D01*
X043339Y001418D01*
X043303Y001383D01*
X043264Y001351D01*
X043223Y001322D01*
X043180Y001296D01*
X043135Y001274D01*
X043089Y001256D01*
X043041Y001241D01*
X042992Y001230D01*
X042943Y001223D01*
X042893Y001220D01*
X042842Y001221D01*
X042793Y001226D01*
X042743Y001235D01*
X042695Y001248D01*
X042648Y001264D01*
X042602Y001285D01*
X042558Y001309D01*
X042516Y001336D01*
X042476Y001366D01*
X042439Y001400D01*
X042405Y001437D01*
X042373Y001476D01*
X042345Y001517D01*
X042320Y001561D01*
X042299Y001606D01*
X042282Y001653D01*
X042268Y001701D01*
X042258Y001750D01*
X042252Y001800D01*
X042250Y001850D01*
X042000Y030100D02*
X042002Y030150D01*
X042008Y030200D01*
X042018Y030249D01*
X042032Y030297D01*
X042049Y030344D01*
X042070Y030389D01*
X042095Y030433D01*
X042123Y030474D01*
X042155Y030513D01*
X042189Y030550D01*
X042226Y030584D01*
X042266Y030614D01*
X042308Y030641D01*
X042352Y030665D01*
X042398Y030686D01*
X042445Y030702D01*
X042493Y030715D01*
X042543Y030724D01*
X042592Y030729D01*
X042643Y030730D01*
X042693Y030727D01*
X042742Y030720D01*
X042791Y030709D01*
X042839Y030694D01*
X042885Y030676D01*
X042930Y030654D01*
X042973Y030628D01*
X043014Y030599D01*
X043053Y030567D01*
X043089Y030532D01*
X043121Y030494D01*
X043151Y030454D01*
X043178Y030411D01*
X043201Y030367D01*
X043220Y030321D01*
X043236Y030273D01*
X043248Y030224D01*
X043256Y030175D01*
X043260Y030125D01*
X043260Y030075D01*
X043256Y030025D01*
X043248Y029976D01*
X043236Y029927D01*
X043220Y029879D01*
X043201Y029833D01*
X043178Y029789D01*
X043151Y029746D01*
X043121Y029706D01*
X043089Y029668D01*
X043053Y029633D01*
X043014Y029601D01*
X042973Y029572D01*
X042930Y029546D01*
X042885Y029524D01*
X042839Y029506D01*
X042791Y029491D01*
X042742Y029480D01*
X042693Y029473D01*
X042643Y029470D01*
X042592Y029471D01*
X042543Y029476D01*
X042493Y029485D01*
X042445Y029498D01*
X042398Y029514D01*
X042352Y029535D01*
X042308Y029559D01*
X042266Y029586D01*
X042226Y029616D01*
X042189Y029650D01*
X042155Y029687D01*
X042123Y029726D01*
X042095Y029767D01*
X042070Y029811D01*
X042049Y029856D01*
X042032Y029903D01*
X042018Y029951D01*
X042008Y030000D01*
X042002Y030050D01*
X042000Y030100D01*
X005500Y030350D02*
X005502Y030400D01*
X005508Y030450D01*
X005518Y030499D01*
X005532Y030547D01*
X005549Y030594D01*
X005570Y030639D01*
X005595Y030683D01*
X005623Y030724D01*
X005655Y030763D01*
X005689Y030800D01*
X005726Y030834D01*
X005766Y030864D01*
X005808Y030891D01*
X005852Y030915D01*
X005898Y030936D01*
X005945Y030952D01*
X005993Y030965D01*
X006043Y030974D01*
X006092Y030979D01*
X006143Y030980D01*
X006193Y030977D01*
X006242Y030970D01*
X006291Y030959D01*
X006339Y030944D01*
X006385Y030926D01*
X006430Y030904D01*
X006473Y030878D01*
X006514Y030849D01*
X006553Y030817D01*
X006589Y030782D01*
X006621Y030744D01*
X006651Y030704D01*
X006678Y030661D01*
X006701Y030617D01*
X006720Y030571D01*
X006736Y030523D01*
X006748Y030474D01*
X006756Y030425D01*
X006760Y030375D01*
X006760Y030325D01*
X006756Y030275D01*
X006748Y030226D01*
X006736Y030177D01*
X006720Y030129D01*
X006701Y030083D01*
X006678Y030039D01*
X006651Y029996D01*
X006621Y029956D01*
X006589Y029918D01*
X006553Y029883D01*
X006514Y029851D01*
X006473Y029822D01*
X006430Y029796D01*
X006385Y029774D01*
X006339Y029756D01*
X006291Y029741D01*
X006242Y029730D01*
X006193Y029723D01*
X006143Y029720D01*
X006092Y029721D01*
X006043Y029726D01*
X005993Y029735D01*
X005945Y029748D01*
X005898Y029764D01*
X005852Y029785D01*
X005808Y029809D01*
X005766Y029836D01*
X005726Y029866D01*
X005689Y029900D01*
X005655Y029937D01*
X005623Y029976D01*
X005595Y030017D01*
X005570Y030061D01*
X005549Y030106D01*
X005532Y030153D01*
X005518Y030201D01*
X005508Y030250D01*
X005502Y030300D01*
X005500Y030350D01*
D11*
X013415Y030267D02*
X013547Y030135D01*
X013810Y030135D01*
X013942Y030267D01*
X014207Y030135D02*
X014207Y030926D01*
X014339Y030662D02*
X014602Y030662D01*
X014734Y030530D01*
X014734Y030135D01*
X014999Y030267D02*
X015131Y030399D01*
X015526Y030399D01*
X015526Y030530D02*
X015526Y030135D01*
X015131Y030135D01*
X014999Y030267D01*
X015131Y030662D02*
X015394Y030662D01*
X015526Y030530D01*
X015791Y030530D02*
X015791Y030267D01*
X015922Y030135D01*
X016186Y030135D01*
X016318Y030267D01*
X016318Y030530D01*
X016186Y030662D01*
X015922Y030662D01*
X015791Y030530D01*
X016583Y030530D02*
X016714Y030399D01*
X016978Y030399D01*
X017110Y030267D01*
X016978Y030135D01*
X016583Y030135D01*
X016583Y030530D02*
X016714Y030662D01*
X017110Y030662D01*
X018166Y030794D02*
X018166Y030267D01*
X018298Y030135D01*
X018562Y030135D01*
X018693Y030267D01*
X018958Y030267D02*
X019090Y030135D01*
X019353Y030135D01*
X019485Y030267D01*
X019485Y030530D01*
X019353Y030662D01*
X019090Y030662D01*
X018958Y030530D01*
X018958Y030267D01*
X018693Y030794D02*
X018562Y030926D01*
X018298Y030926D01*
X018166Y030794D01*
X017901Y029676D02*
X017638Y029544D01*
X017374Y029280D01*
X017770Y029280D01*
X017901Y029149D01*
X017901Y029017D01*
X017770Y028885D01*
X017506Y028885D01*
X017374Y029017D01*
X017374Y029280D01*
X017110Y029412D02*
X017110Y029544D01*
X016978Y029676D01*
X016714Y029676D01*
X016583Y029544D01*
X016318Y029544D02*
X016318Y029412D01*
X016186Y029280D01*
X015922Y029280D01*
X015791Y029412D01*
X015791Y029544D01*
X015922Y029676D01*
X016186Y029676D01*
X016318Y029544D01*
X016186Y029280D02*
X016318Y029149D01*
X016318Y029017D01*
X016186Y028885D01*
X015922Y028885D01*
X015791Y029017D01*
X015791Y029149D01*
X015922Y029280D01*
X015526Y029280D02*
X015394Y029149D01*
X014999Y029149D01*
X014999Y028885D02*
X014999Y029676D01*
X015394Y029676D01*
X015526Y029544D01*
X015526Y029280D01*
X014734Y029149D02*
X014734Y029017D01*
X014602Y028885D01*
X014339Y028885D01*
X014207Y029017D01*
X014339Y029280D02*
X014602Y029280D01*
X014734Y029149D01*
X014339Y029280D02*
X014207Y029412D01*
X014207Y029544D01*
X014339Y029676D01*
X014602Y029676D01*
X014734Y029544D01*
X013942Y029676D02*
X013415Y029676D01*
X013415Y028885D01*
X013942Y028885D01*
X013679Y029280D02*
X013415Y029280D01*
X013415Y030267D02*
X013415Y030794D01*
X013547Y030926D01*
X013810Y030926D01*
X013942Y030794D01*
X014207Y030530D02*
X014339Y030662D01*
X016583Y028885D02*
X017110Y029412D01*
X017110Y028885D02*
X016583Y028885D01*
X018166Y029017D02*
X018298Y028885D01*
X018562Y028885D01*
X018693Y029017D01*
X018693Y029149D01*
X018562Y029280D01*
X018166Y029280D01*
X018166Y029017D01*
X018166Y029280D02*
X018430Y029544D01*
X018693Y029676D01*
X019750Y029676D02*
X019750Y028885D01*
X020277Y028885D01*
X020014Y029280D02*
X019750Y029280D01*
X019750Y029676D02*
X020277Y029676D01*
X020542Y029871D02*
X020542Y030662D01*
X020937Y030662D01*
X021069Y030530D01*
X021069Y030267D01*
X020937Y030135D01*
X020542Y030135D01*
X020277Y030135D02*
X020277Y030530D01*
X020145Y030662D01*
X020014Y030530D01*
X020014Y030135D01*
X019750Y030135D02*
X019750Y030662D01*
X019882Y030662D01*
X020014Y030530D01*
X021334Y030662D02*
X021334Y030267D01*
X021466Y030135D01*
X021861Y030135D01*
X021861Y030662D01*
X022126Y030662D02*
X022389Y030662D01*
X022257Y030794D02*
X022257Y030267D01*
X022389Y030135D01*
X022654Y030267D02*
X022654Y030530D01*
X022785Y030662D01*
X023049Y030662D01*
X023181Y030530D01*
X023181Y030399D01*
X022654Y030399D01*
X022654Y030267D02*
X022785Y030135D01*
X023049Y030135D01*
X023445Y030135D02*
X023445Y030662D01*
X023445Y030399D02*
X023709Y030662D01*
X023841Y030662D01*
X024897Y030794D02*
X024897Y030267D01*
X025029Y030135D01*
X025293Y030135D01*
X025424Y030267D01*
X025689Y030135D02*
X025953Y030135D01*
X025821Y030135D02*
X025821Y030926D01*
X025689Y030926D01*
X025424Y030794D02*
X025293Y030926D01*
X025029Y030926D01*
X024897Y030794D01*
X026217Y030662D02*
X026217Y030267D01*
X026349Y030135D01*
X026744Y030135D01*
X026744Y030662D01*
X027009Y030662D02*
X027404Y030662D01*
X027536Y030530D01*
X027536Y030267D01*
X027404Y030135D01*
X027009Y030135D01*
X027009Y030926D01*
X026216Y029676D02*
X026216Y028885D01*
X025821Y028885D01*
X025689Y029017D01*
X025689Y029280D01*
X025821Y029412D01*
X026216Y029412D01*
X025425Y029412D02*
X025293Y029412D01*
X025029Y029149D01*
X025029Y029412D02*
X025029Y028885D01*
X024764Y028885D02*
X024764Y029280D01*
X024633Y029412D01*
X024369Y029412D01*
X024369Y029149D02*
X024764Y029149D01*
X024764Y028885D02*
X024369Y028885D01*
X024237Y029017D01*
X024369Y029149D01*
X023973Y029017D02*
X023973Y029280D01*
X023841Y029412D01*
X023577Y029412D01*
X023445Y029280D01*
X023445Y029017D01*
X023577Y028885D01*
X023841Y028885D01*
X023973Y029017D01*
X023181Y029017D02*
X023181Y029280D01*
X023049Y029412D01*
X022654Y029412D01*
X022654Y029676D02*
X022654Y028885D01*
X023049Y028885D01*
X023181Y029017D01*
X022389Y028885D02*
X022126Y028885D01*
X022257Y028885D02*
X022257Y029676D01*
X022126Y029676D01*
X021729Y029412D02*
X021861Y029280D01*
X021861Y028885D01*
X021466Y028885D01*
X021334Y029017D01*
X021466Y029149D01*
X021861Y029149D01*
X021729Y029412D02*
X021466Y029412D01*
X021069Y029412D02*
X020805Y028885D01*
X020542Y029412D01*
X028593Y030135D02*
X028593Y030926D01*
X028856Y030662D01*
X029120Y030926D01*
X029120Y030135D01*
X029385Y030267D02*
X029516Y030399D01*
X029912Y030399D01*
X029912Y030530D02*
X029912Y030135D01*
X029516Y030135D01*
X029385Y030267D01*
X029516Y030662D02*
X029780Y030662D01*
X029912Y030530D01*
X030176Y030662D02*
X030176Y030135D01*
X030176Y030662D02*
X030572Y030662D01*
X030703Y030530D01*
X030703Y030135D01*
X030968Y030135D02*
X030968Y030662D01*
X031364Y030662D01*
X031495Y030530D01*
X031495Y030135D01*
X031760Y030135D02*
X031760Y030926D01*
X031892Y030662D02*
X032155Y030662D01*
X032287Y030530D01*
X032287Y030135D01*
X032552Y030267D02*
X032552Y030530D01*
X032684Y030662D01*
X032947Y030662D01*
X033079Y030530D01*
X033079Y030399D01*
X032552Y030399D01*
X032552Y030267D02*
X032684Y030135D01*
X032947Y030135D01*
X033344Y030135D02*
X033607Y030135D01*
X033476Y030135D02*
X033476Y030662D01*
X033344Y030662D01*
X033476Y030926D02*
X033476Y031057D01*
X033872Y030662D02*
X034004Y030662D01*
X034135Y030530D01*
X034267Y030662D01*
X034399Y030530D01*
X034399Y030135D01*
X034135Y030135D02*
X034135Y030530D01*
X033872Y030662D02*
X033872Y030135D01*
X035456Y030267D02*
X035456Y030530D01*
X035587Y030662D01*
X035851Y030662D01*
X035983Y030530D01*
X035983Y030399D01*
X035456Y030399D01*
X035456Y030267D02*
X035587Y030135D01*
X035851Y030135D01*
X036247Y030135D02*
X036379Y030135D01*
X036379Y030267D01*
X036247Y030267D01*
X036247Y030135D01*
X036643Y030399D02*
X036907Y030135D01*
X037170Y030399D01*
X037170Y030926D01*
X036643Y030926D02*
X036643Y030399D01*
X037435Y030267D02*
X037567Y030267D01*
X037567Y030135D01*
X037435Y030135D01*
X037435Y030267D01*
X031892Y030662D02*
X031760Y030530D01*
D12*
X020430Y025600D02*
X019830Y025600D01*
X019830Y024600D02*
X020430Y024600D01*
X020430Y023600D02*
X019830Y023600D01*
X018130Y022650D02*
X018130Y022050D01*
X017130Y022050D02*
X017130Y022650D01*
X016130Y022650D02*
X016130Y022050D01*
X015130Y022050D02*
X015130Y022650D01*
X014130Y022650D02*
X014130Y022050D01*
X007180Y021850D02*
X006580Y021850D01*
X006580Y020850D02*
X007180Y020850D01*
X007180Y019850D02*
X006580Y019850D01*
X006580Y018850D02*
X007180Y018850D01*
X007180Y016350D02*
X006580Y016350D01*
X006580Y015350D02*
X007180Y015350D01*
X007180Y014350D02*
X006580Y014350D01*
X006580Y013350D02*
X007180Y013350D01*
X007180Y010350D02*
X006580Y010350D01*
X006580Y009350D02*
X007180Y009350D01*
X007180Y008350D02*
X006580Y008350D01*
X006580Y005850D02*
X007180Y005850D01*
X007180Y004850D02*
X006580Y004850D01*
X006580Y003850D02*
X007180Y003850D01*
X009630Y002400D02*
X009630Y001800D01*
X010630Y001800D02*
X010630Y002400D01*
X011630Y002400D02*
X011630Y001800D01*
X013080Y003100D02*
X013680Y003100D01*
X013680Y004100D02*
X013080Y004100D01*
X013080Y005100D02*
X013680Y005100D01*
X013680Y006100D02*
X013080Y006100D01*
X013080Y007100D02*
X013680Y007100D01*
X013680Y008100D02*
X013080Y008100D01*
X013080Y009100D02*
X013680Y009100D01*
X013680Y010100D02*
X013080Y010100D01*
X013080Y011100D02*
X013680Y011100D01*
X013680Y012100D02*
X013080Y012100D01*
X013080Y013100D02*
X013680Y013100D01*
X013680Y014100D02*
X013080Y014100D01*
X013080Y015100D02*
X013680Y015100D01*
X013680Y016100D02*
X013080Y016100D01*
X013080Y017100D02*
X013680Y017100D01*
X022080Y017100D02*
X022680Y017100D01*
X022680Y016100D02*
X022080Y016100D01*
X022080Y015100D02*
X022680Y015100D01*
X022680Y014100D02*
X022080Y014100D01*
X022080Y013100D02*
X022680Y013100D01*
X022680Y012100D02*
X022080Y012100D01*
X022080Y011100D02*
X022680Y011100D01*
X022680Y010100D02*
X022080Y010100D01*
X022080Y009100D02*
X022680Y009100D01*
X022680Y008100D02*
X022080Y008100D01*
X022080Y007100D02*
X022680Y007100D01*
X022680Y006100D02*
X022080Y006100D01*
X022080Y005100D02*
X022680Y005100D01*
X022680Y004100D02*
X022080Y004100D01*
X022080Y003100D02*
X022680Y003100D01*
X024990Y002370D02*
X024990Y001770D01*
X026770Y001770D02*
X026770Y002370D01*
X026770Y004330D02*
X026770Y004930D01*
X024990Y004930D02*
X024990Y004330D01*
X031130Y002150D02*
X031130Y001550D01*
X032130Y001550D02*
X032130Y002150D01*
X033130Y002150D02*
X033130Y001550D01*
X038880Y001550D02*
X038880Y002150D01*
X039880Y002150D02*
X039880Y001550D01*
X040880Y001550D02*
X040880Y002150D01*
D13*
X014622Y024128D02*
X014622Y025073D01*
X013126Y025073D02*
X013126Y024128D01*
X011630Y024128D02*
X011630Y025073D01*
D14*
X006630Y025600D03*
X006630Y023600D03*
D15*
X009380Y027226D03*
X009380Y027974D03*
X011630Y027974D03*
X011630Y027226D03*
X016880Y025224D03*
X016880Y024476D03*
X030380Y020974D03*
X030380Y020226D03*
X033880Y018224D03*
X033880Y017476D03*
X037880Y019976D03*
X037880Y020724D03*
X041380Y018224D03*
X041380Y017476D03*
X009380Y007724D03*
X009380Y006976D03*
D16*
X009380Y008850D03*
X009380Y009850D03*
X009630Y005100D03*
X009630Y004100D03*
X024380Y020600D03*
X025380Y020600D03*
X034130Y020850D03*
X034130Y019850D03*
X041380Y019850D03*
X041380Y020850D03*
D17*
X040004Y015850D03*
X039256Y015850D03*
X032754Y016100D03*
X032006Y016100D03*
X026504Y016100D03*
X025756Y016100D03*
X025756Y009600D03*
X026504Y009600D03*
X026756Y007100D03*
X027504Y007100D03*
X010504Y019350D03*
X009756Y019350D03*
X009754Y015850D03*
X009006Y015850D03*
X009006Y014350D03*
X009754Y014350D03*
X009754Y012850D03*
X009006Y012850D03*
X009006Y011100D03*
X009754Y011100D03*
D18*
X030697Y017726D03*
X031563Y018100D03*
X030697Y018474D03*
X038197Y018474D03*
X039063Y018100D03*
X038197Y017726D03*
D19*
X037990Y013850D02*
X038770Y013850D01*
X040990Y013850D02*
X041770Y013850D01*
X034270Y013850D02*
X033490Y013850D01*
X031270Y013850D02*
X030490Y013850D01*
X030490Y007850D02*
X031270Y007850D01*
X033490Y007850D02*
X034270Y007850D01*
X034270Y005850D02*
X033490Y005850D01*
X031270Y005850D02*
X030490Y005850D01*
X030490Y003850D02*
X031270Y003850D01*
X033490Y003850D02*
X034270Y003850D01*
X037990Y003850D02*
X038770Y003850D01*
X040990Y003850D02*
X041770Y003850D01*
X041770Y005850D02*
X040990Y005850D01*
X038770Y005850D02*
X037990Y005850D01*
X037990Y007850D02*
X038770Y007850D01*
X040990Y007850D02*
X041770Y007850D01*
D20*
X025524Y007100D03*
X024736Y007100D03*
D21*
X011819Y029850D03*
X010441Y029850D03*
D22*
X007880Y027100D03*
X013880Y020600D03*
X012130Y019350D03*
X011380Y017350D03*
X019130Y015600D03*
X022130Y018850D03*
X021380Y021350D03*
X023630Y022350D03*
X028880Y019350D03*
X037380Y022350D03*
X020130Y008100D03*
X025880Y005850D03*
D23*
X025880Y006224D01*
X026756Y007100D01*
X027504Y007100D02*
X027880Y006724D01*
X027880Y005100D01*
X027410Y004630D01*
X026770Y004630D01*
X026770Y002070D01*
X024990Y002070D02*
X024990Y004630D01*
X024850Y004630D01*
X024505Y004975D01*
X023630Y004100D01*
X022380Y004100D01*
X022630Y003850D01*
X022380Y003100D02*
X021630Y003100D01*
X020880Y003850D01*
X020880Y011600D01*
X020880Y016850D01*
X019130Y018600D01*
X011254Y018600D01*
X010504Y019350D01*
X009756Y019350D02*
X009756Y018724D01*
X010380Y018100D01*
X017880Y018100D01*
X020130Y015850D01*
X020130Y008100D01*
X024130Y006494D02*
X024130Y005350D01*
X024505Y004975D01*
X024130Y006494D02*
X024736Y007100D01*
X024736Y010494D01*
X024130Y011100D01*
X022380Y011100D01*
X022380Y012100D02*
X021380Y012100D01*
X020880Y011600D01*
X022380Y014100D02*
X025380Y014100D01*
X025756Y013724D01*
X025756Y009600D01*
X025524Y009368D01*
X025524Y007100D01*
X027504Y007100D02*
X027504Y008600D01*
X026504Y009600D01*
X029630Y012600D02*
X030130Y012100D01*
X035130Y012100D01*
X036630Y012100D01*
X036630Y017600D01*
X036756Y017726D01*
X038197Y017726D01*
X039063Y018100D02*
X039256Y017907D01*
X039256Y015850D01*
X038380Y015850D01*
X038380Y013850D01*
X036630Y012100D02*
X042630Y012100D01*
X042630Y016226D01*
X041380Y017476D01*
X041380Y018224D02*
X041380Y019850D01*
X041380Y020724D02*
X041380Y020850D01*
X041380Y020724D02*
X037880Y020724D01*
X037880Y021850D01*
X037380Y022350D01*
X036630Y020850D02*
X035630Y021850D01*
X025630Y021850D01*
X024380Y020600D01*
X024130Y020850D01*
X023380Y020850D01*
X021880Y022350D01*
X021880Y024600D01*
X020880Y025600D01*
X020130Y025600D01*
X019380Y025600D01*
X019380Y027100D01*
X019254Y027226D01*
X011630Y027226D01*
X009630Y025226D01*
X009630Y023850D01*
X009130Y023350D01*
X008130Y023350D01*
X008130Y021850D01*
X006880Y021850D01*
X006880Y019850D02*
X009256Y019850D01*
X009756Y019350D01*
X012130Y019350D02*
X012380Y019100D01*
X019380Y019100D01*
X021380Y017100D01*
X021380Y016850D01*
X021630Y016600D01*
X021630Y016350D01*
X021880Y016100D01*
X022380Y016100D01*
X022380Y015100D02*
X024756Y015100D01*
X025756Y016100D01*
X026504Y016100D02*
X026630Y016226D01*
X026630Y019850D01*
X025880Y020600D01*
X025380Y020600D01*
X023630Y022350D02*
X022630Y023350D01*
X022630Y025100D01*
X021130Y026600D01*
X020130Y026600D01*
X020130Y027350D01*
X019380Y028100D01*
X011756Y028100D01*
X011630Y027974D01*
X011819Y028163D01*
X011819Y029850D01*
X010441Y029850D02*
X010441Y028350D01*
X010380Y028350D01*
X009380Y027974D01*
X009380Y027226D02*
X009380Y027100D01*
X007880Y027100D01*
X013126Y024600D02*
X013126Y019850D01*
X019630Y019850D01*
X022380Y017100D01*
X022130Y018850D02*
X022130Y020600D01*
X021380Y021350D01*
X020130Y021850D02*
X020130Y023600D01*
X018380Y024850D02*
X018130Y024600D01*
X017004Y024600D01*
X016880Y024476D01*
X016880Y024350D01*
X017130Y024350D01*
X016880Y025224D02*
X015246Y025224D01*
X014622Y024600D01*
X018380Y024850D02*
X018380Y025350D01*
X018630Y025600D01*
X019380Y025600D01*
X020130Y021850D02*
X018880Y020600D01*
X013880Y020600D01*
X011380Y017350D02*
X011380Y016350D01*
X010880Y015850D01*
X009754Y015850D01*
X009006Y015850D02*
X008506Y015350D01*
X006880Y015350D01*
X006880Y014350D02*
X009006Y014350D01*
X009754Y014350D02*
X013130Y014350D01*
X013380Y014100D01*
X013380Y013100D02*
X013130Y012850D01*
X009754Y012850D01*
X009006Y012850D02*
X008506Y013350D01*
X006880Y013350D01*
X009006Y011100D02*
X008380Y010474D01*
X008380Y008100D01*
X008756Y007724D01*
X009380Y007724D01*
X010756Y007724D01*
X011630Y006850D01*
X011630Y004600D01*
X012130Y004100D01*
X013380Y004100D01*
X012880Y004100D01*
X009630Y005100D02*
X009130Y005100D01*
X008630Y005600D01*
X008630Y006226D01*
X009380Y006976D01*
X009380Y008850D02*
X010380Y008850D01*
X012130Y007100D01*
X013380Y007100D01*
X010130Y010350D02*
X009630Y009850D01*
X009380Y009850D01*
X010130Y010350D02*
X010130Y010724D01*
X009754Y011100D01*
X005880Y006850D02*
X006880Y005850D01*
X006880Y005600D01*
X005880Y006850D02*
X005880Y017850D01*
X006880Y018850D01*
X013380Y017100D02*
X017630Y017100D01*
X019130Y015600D01*
X028880Y019350D02*
X028880Y020974D01*
X030380Y020974D01*
X034006Y020974D01*
X034130Y020850D01*
X034130Y019850D02*
X033880Y019600D01*
X033880Y018224D01*
X033880Y017476D02*
X034504Y017476D01*
X035130Y016850D01*
X035130Y012100D01*
X033880Y013850D02*
X033880Y016100D01*
X032754Y016100D01*
X032006Y016100D02*
X030630Y016100D01*
X030630Y013850D01*
X030880Y013850D01*
X029630Y012600D02*
X029630Y016659D01*
X030697Y017726D01*
X031563Y018100D02*
X032006Y017657D01*
X032006Y016100D01*
X030697Y018474D02*
X030697Y019909D01*
X030380Y020226D01*
X036630Y020850D02*
X036630Y017600D01*
X038197Y018474D02*
X038197Y019659D01*
X037880Y019976D01*
X040004Y015850D02*
X041380Y015850D01*
X041380Y013850D01*
D24*
X011630Y002100D02*
X011380Y002350D01*
X010880Y002350D01*
X010630Y002100D01*
X010380Y002350D01*
X009880Y002350D01*
X009630Y002100D01*
D25*
X009650Y002120D02*
X010110Y002120D01*
X010110Y002438D01*
X010098Y002512D01*
X010075Y002584D01*
X010041Y002652D01*
X009996Y002713D01*
X009943Y002766D01*
X009882Y002811D01*
X009814Y002845D01*
X009742Y002868D01*
X009668Y002880D01*
X009650Y002880D01*
X009650Y002120D01*
X009650Y002080D01*
X010110Y002080D01*
X010110Y001762D01*
X010098Y001688D01*
X010075Y001616D01*
X010041Y001548D01*
X009996Y001487D01*
X009943Y001434D01*
X009882Y001389D01*
X009814Y001355D01*
X009742Y001332D01*
X009668Y001320D01*
X009650Y001320D01*
X009650Y002080D01*
X009610Y002080D01*
X009610Y001320D01*
X009592Y001320D01*
X009518Y001332D01*
X009446Y001355D01*
X009378Y001389D01*
X009317Y001434D01*
X009264Y001487D01*
X009219Y001548D01*
X009185Y001616D01*
X009162Y001688D01*
X009150Y001762D01*
X009150Y002080D01*
X009610Y002080D01*
X009610Y002120D01*
X009610Y002880D01*
X009592Y002880D01*
X009518Y002868D01*
X009446Y002845D01*
X009378Y002811D01*
X009317Y002766D01*
X009264Y002713D01*
X009219Y002652D01*
X009185Y002584D01*
X009162Y002512D01*
X009150Y002438D01*
X009150Y002120D01*
X009610Y002120D01*
X009650Y002120D01*
X009650Y002161D02*
X009610Y002161D01*
X009610Y002319D02*
X009650Y002319D01*
X009650Y002478D02*
X009610Y002478D01*
X009610Y002636D02*
X009650Y002636D01*
X009650Y002795D02*
X009610Y002795D01*
X009356Y002795D02*
X007054Y002795D01*
X007028Y002810D02*
X006766Y002880D01*
X006494Y002880D01*
X006232Y002810D01*
X005998Y002674D01*
X005806Y002482D01*
X005670Y002248D01*
X005600Y001986D01*
X005600Y001714D01*
X005670Y001452D01*
X005806Y001218D01*
X005998Y001026D01*
X006232Y000890D01*
X006494Y000820D01*
X006766Y000820D01*
X007028Y000890D01*
X007262Y001026D01*
X007454Y001218D01*
X007590Y001452D01*
X007660Y001714D01*
X007660Y001986D01*
X007590Y002248D01*
X007454Y002482D01*
X007262Y002674D01*
X007028Y002810D01*
X007301Y002636D02*
X009212Y002636D01*
X009156Y002478D02*
X007457Y002478D01*
X007548Y002319D02*
X009150Y002319D01*
X009150Y002161D02*
X007613Y002161D01*
X007656Y002002D02*
X009150Y002002D01*
X009150Y001844D02*
X007660Y001844D01*
X007652Y001685D02*
X009163Y001685D01*
X009235Y001527D02*
X007610Y001527D01*
X007541Y001368D02*
X009421Y001368D01*
X009610Y001368D02*
X009650Y001368D01*
X009650Y001527D02*
X009610Y001527D01*
X009610Y001685D02*
X009650Y001685D01*
X009650Y001844D02*
X009610Y001844D01*
X009610Y002002D02*
X009650Y002002D01*
X010110Y002002D02*
X010150Y002002D01*
X010150Y002080D02*
X010150Y001762D01*
X010162Y001688D01*
X010185Y001616D01*
X010219Y001548D01*
X010264Y001487D01*
X010317Y001434D01*
X010378Y001389D01*
X010446Y001355D01*
X010518Y001332D01*
X010592Y001320D01*
X010610Y001320D01*
X010610Y002080D01*
X010650Y002080D01*
X010650Y002120D01*
X011110Y002120D01*
X011110Y002438D01*
X011098Y002512D01*
X011075Y002584D01*
X011041Y002652D01*
X010996Y002713D01*
X010943Y002766D01*
X010882Y002811D01*
X010814Y002845D01*
X010742Y002868D01*
X010668Y002880D01*
X010650Y002880D01*
X010650Y002120D01*
X010610Y002120D01*
X010610Y002880D01*
X010592Y002880D01*
X010518Y002868D01*
X010446Y002845D01*
X010378Y002811D01*
X010317Y002766D01*
X010264Y002713D01*
X010219Y002652D01*
X010185Y002584D01*
X010162Y002512D01*
X010150Y002438D01*
X010150Y002120D01*
X010610Y002120D01*
X010610Y002080D01*
X010150Y002080D01*
X010150Y002161D02*
X010110Y002161D01*
X010110Y002319D02*
X010150Y002319D01*
X010156Y002478D02*
X010104Y002478D01*
X010048Y002636D02*
X010212Y002636D01*
X010356Y002795D02*
X009904Y002795D01*
X010610Y002795D02*
X010650Y002795D01*
X010650Y002636D02*
X010610Y002636D01*
X010610Y002478D02*
X010650Y002478D01*
X010650Y002319D02*
X010610Y002319D01*
X010610Y002161D02*
X010650Y002161D01*
X010650Y002080D02*
X011110Y002080D01*
X011110Y001762D01*
X011098Y001688D01*
X011075Y001616D01*
X011041Y001548D01*
X010996Y001487D01*
X010943Y001434D01*
X010882Y001389D01*
X010814Y001355D01*
X010742Y001332D01*
X010668Y001320D01*
X010650Y001320D01*
X010650Y002080D01*
X010650Y002002D02*
X010610Y002002D01*
X010610Y001844D02*
X010650Y001844D01*
X010650Y001685D02*
X010610Y001685D01*
X010610Y001527D02*
X010650Y001527D01*
X010650Y001368D02*
X010610Y001368D01*
X010421Y001368D02*
X009839Y001368D01*
X010025Y001527D02*
X010235Y001527D01*
X010163Y001685D02*
X010097Y001685D01*
X010110Y001844D02*
X010150Y001844D01*
X010839Y001368D02*
X011421Y001368D01*
X011446Y001355D02*
X011518Y001332D01*
X011592Y001320D01*
X011610Y001320D01*
X011610Y002080D01*
X011650Y002080D01*
X011650Y002120D01*
X012110Y002120D01*
X012110Y002438D01*
X012098Y002512D01*
X012075Y002584D01*
X012041Y002652D01*
X011996Y002713D01*
X011943Y002766D01*
X011882Y002811D01*
X011814Y002845D01*
X011742Y002868D01*
X011668Y002880D01*
X011650Y002880D01*
X011650Y002120D01*
X011610Y002120D01*
X011610Y002880D01*
X011592Y002880D01*
X011518Y002868D01*
X011446Y002845D01*
X011378Y002811D01*
X011317Y002766D01*
X011264Y002713D01*
X011219Y002652D01*
X011185Y002584D01*
X011162Y002512D01*
X011150Y002438D01*
X011150Y002120D01*
X011610Y002120D01*
X011610Y002080D01*
X011150Y002080D01*
X011150Y001762D01*
X011162Y001688D01*
X011185Y001616D01*
X011219Y001548D01*
X011264Y001487D01*
X011317Y001434D01*
X011378Y001389D01*
X011446Y001355D01*
X011610Y001368D02*
X011650Y001368D01*
X011650Y001320D02*
X011668Y001320D01*
X011742Y001332D01*
X011814Y001355D01*
X011882Y001389D01*
X011943Y001434D01*
X011996Y001487D01*
X012041Y001548D01*
X012075Y001616D01*
X012098Y001688D01*
X012110Y001762D01*
X012110Y002080D01*
X011650Y002080D01*
X011650Y001320D01*
X011839Y001368D02*
X024727Y001368D01*
X024738Y001359D02*
X024806Y001325D01*
X024878Y001302D01*
X024952Y001290D01*
X024970Y001290D01*
X024970Y002050D01*
X025010Y002050D01*
X025010Y002090D01*
X025470Y002090D01*
X025470Y002408D01*
X025458Y002482D01*
X025435Y002554D01*
X025401Y002622D01*
X025356Y002683D01*
X025303Y002736D01*
X025242Y002781D01*
X025174Y002815D01*
X025102Y002838D01*
X025028Y002850D01*
X025010Y002850D01*
X025010Y002090D01*
X024970Y002090D01*
X024970Y002850D01*
X024952Y002850D01*
X024878Y002838D01*
X024806Y002815D01*
X024738Y002781D01*
X024677Y002736D01*
X024624Y002683D01*
X024579Y002622D01*
X024545Y002554D01*
X024522Y002482D01*
X024510Y002408D01*
X024510Y002090D01*
X024970Y002090D01*
X024970Y002050D01*
X024510Y002050D01*
X024510Y001732D01*
X024522Y001658D01*
X024545Y001586D01*
X024579Y001518D01*
X024624Y001457D01*
X024677Y001404D01*
X024738Y001359D01*
X024970Y001368D02*
X025010Y001368D01*
X025010Y001290D02*
X025028Y001290D01*
X025102Y001302D01*
X025174Y001325D01*
X025242Y001359D01*
X025303Y001404D01*
X025356Y001457D01*
X025401Y001518D01*
X025435Y001586D01*
X025458Y001658D01*
X025470Y001732D01*
X025470Y002050D01*
X025010Y002050D01*
X025010Y001290D01*
X025010Y001527D02*
X024970Y001527D01*
X024970Y001685D02*
X025010Y001685D01*
X025010Y001844D02*
X024970Y001844D01*
X024970Y002002D02*
X025010Y002002D01*
X025010Y002161D02*
X024970Y002161D01*
X024970Y002319D02*
X025010Y002319D01*
X025010Y002478D02*
X024970Y002478D01*
X024970Y002636D02*
X025010Y002636D01*
X025010Y002795D02*
X024970Y002795D01*
X024766Y002795D02*
X023311Y002795D01*
X023273Y002703D02*
X023380Y002961D01*
X023380Y003239D01*
X023273Y003497D01*
X023077Y003693D01*
X022988Y003730D01*
X022993Y003734D01*
X023046Y003787D01*
X023091Y003848D01*
X023125Y003916D01*
X023148Y003988D01*
X023160Y004062D01*
X023160Y004080D01*
X022400Y004080D01*
X022400Y004120D01*
X023160Y004120D01*
X023160Y004138D01*
X023148Y004212D01*
X023125Y004284D01*
X023091Y004352D01*
X023046Y004413D01*
X022993Y004466D01*
X022988Y004470D01*
X023077Y004507D01*
X023273Y004703D01*
X023380Y004961D01*
X023380Y005239D01*
X023273Y005497D01*
X023170Y005600D01*
X023273Y005703D01*
X023380Y005961D01*
X023380Y006239D01*
X023273Y006497D01*
X023170Y006600D01*
X023273Y006703D01*
X023380Y006961D01*
X023380Y007239D01*
X023273Y007497D01*
X023170Y007600D01*
X023273Y007703D01*
X023380Y007961D01*
X023380Y008239D01*
X023273Y008497D01*
X023170Y008600D01*
X023273Y008703D01*
X023380Y008961D01*
X023380Y009239D01*
X023273Y009497D01*
X023170Y009600D01*
X023273Y009703D01*
X023380Y009961D01*
X023380Y010239D01*
X023273Y010497D01*
X023077Y010693D01*
X022988Y010730D01*
X022993Y010734D01*
X023046Y010787D01*
X023091Y010848D01*
X023125Y010916D01*
X023148Y010988D01*
X023160Y011062D01*
X023160Y011080D01*
X022400Y011080D01*
X022400Y011120D01*
X023160Y011120D01*
X023160Y011138D01*
X023148Y011212D01*
X023125Y011284D01*
X023091Y011352D01*
X023046Y011413D01*
X022993Y011466D01*
X022988Y011470D01*
X023077Y011507D01*
X023273Y011703D01*
X023380Y011961D01*
X023380Y012239D01*
X023273Y012497D01*
X023170Y012600D01*
X023273Y012703D01*
X023380Y012961D01*
X023380Y013239D01*
X023273Y013497D01*
X023230Y013540D01*
X025148Y013540D01*
X025196Y013492D01*
X025196Y010157D01*
X025161Y010122D01*
X025100Y009975D01*
X025100Y009736D01*
X025049Y009685D01*
X024964Y009479D01*
X024964Y007677D01*
X024929Y007642D01*
X024909Y007595D01*
X024784Y007595D01*
X024784Y007148D01*
X024688Y007148D01*
X024688Y007052D01*
X024300Y007052D01*
X024300Y006761D01*
X024313Y006716D01*
X024336Y006675D01*
X024370Y006641D01*
X024411Y006617D01*
X024457Y006605D01*
X024688Y006605D01*
X024688Y007052D01*
X024784Y007052D01*
X024784Y006605D01*
X024909Y006605D01*
X024929Y006558D01*
X025041Y006446D01*
X025188Y006385D01*
X025341Y006385D01*
X025320Y006335D01*
X025320Y006220D01*
X025282Y006128D01*
X025282Y005572D01*
X025343Y005425D01*
X025455Y005313D01*
X025602Y005252D01*
X026146Y005252D01*
X026070Y005069D01*
X026070Y004191D01*
X026177Y003933D01*
X026210Y003900D01*
X026210Y002800D01*
X026177Y002767D01*
X026070Y002509D01*
X026070Y001631D01*
X026177Y001373D01*
X026373Y001177D01*
X026631Y001070D01*
X026909Y001070D01*
X027167Y001177D01*
X027363Y001373D01*
X027470Y001631D01*
X027470Y002509D01*
X027363Y002767D01*
X027330Y002800D01*
X027330Y003900D01*
X027363Y003933D01*
X027420Y004070D01*
X027521Y004070D01*
X027727Y004155D01*
X027885Y004313D01*
X028355Y004783D01*
X028440Y004989D01*
X028440Y006835D01*
X028355Y007041D01*
X028197Y007199D01*
X028160Y007236D01*
X028160Y007475D01*
X028099Y007622D01*
X028064Y007657D01*
X028064Y008711D01*
X027979Y008917D01*
X027821Y009075D01*
X027160Y009736D01*
X027160Y009975D01*
X027099Y010122D01*
X026987Y010234D01*
X026839Y010295D01*
X026316Y010295D01*
X026316Y013835D01*
X026231Y014041D01*
X026073Y014199D01*
X025697Y014575D01*
X025491Y014660D01*
X025108Y014660D01*
X025853Y015405D01*
X026091Y015405D01*
X026130Y015421D01*
X026169Y015405D01*
X026839Y015405D01*
X026987Y015466D01*
X027099Y015578D01*
X027160Y015725D01*
X027160Y016042D01*
X027190Y016115D01*
X027190Y019961D01*
X027105Y020167D01*
X026355Y020917D01*
X026197Y021075D01*
X025991Y021160D01*
X025753Y021160D01*
X025653Y021260D01*
X025107Y021260D01*
X024724Y020878D01*
X024562Y021040D01*
X024380Y021040D01*
X024380Y020600D01*
X024380Y020600D01*
X024380Y020160D01*
X024562Y020160D01*
X024724Y020322D01*
X025107Y019940D01*
X025653Y019940D01*
X025701Y019987D01*
X026070Y019618D01*
X026070Y016795D01*
X025421Y016795D01*
X025273Y016734D01*
X025161Y016622D01*
X025100Y016475D01*
X025100Y016236D01*
X024524Y015660D01*
X023230Y015660D01*
X023273Y015703D01*
X023380Y015961D01*
X023380Y016239D01*
X023273Y016497D01*
X023170Y016600D01*
X023273Y016703D01*
X023380Y016961D01*
X023380Y017239D01*
X023273Y017497D01*
X023077Y017693D01*
X022819Y017800D01*
X022472Y017800D01*
X022020Y018252D01*
X022408Y018252D01*
X022555Y018313D01*
X022667Y018425D01*
X022728Y018572D01*
X022728Y019128D01*
X022690Y019220D01*
X022690Y020711D01*
X022605Y020917D01*
X021978Y021544D01*
X021978Y021628D01*
X021917Y021775D01*
X021805Y021887D01*
X021658Y021948D01*
X021102Y021948D01*
X020955Y021887D01*
X020843Y021775D01*
X020782Y021628D01*
X020782Y021072D01*
X020843Y020925D01*
X020955Y020813D01*
X021102Y020752D01*
X021186Y020752D01*
X021570Y020368D01*
X021570Y019220D01*
X021532Y019128D01*
X021532Y018740D01*
X019947Y020325D01*
X019741Y020410D01*
X019482Y020410D01*
X020447Y021375D01*
X020605Y021533D01*
X020690Y021739D01*
X020690Y022950D01*
X020827Y023007D01*
X021023Y023203D01*
X021130Y023461D01*
X021130Y023739D01*
X021023Y023997D01*
X020920Y024100D01*
X021023Y024203D01*
X021130Y024461D01*
X021130Y024739D01*
X021023Y024997D01*
X020827Y025193D01*
X020738Y025230D01*
X020743Y025234D01*
X020796Y025287D01*
X020841Y025348D01*
X020875Y025416D01*
X020898Y025488D01*
X020910Y025562D01*
X020910Y025580D01*
X020150Y025580D01*
X020150Y025620D01*
X020910Y025620D01*
X020910Y025638D01*
X020898Y025712D01*
X020875Y025784D01*
X020841Y025852D01*
X020796Y025913D01*
X020743Y025966D01*
X020682Y026011D01*
X020624Y026040D01*
X020898Y026040D01*
X022070Y024868D01*
X022070Y023239D01*
X022155Y023033D01*
X022313Y022875D01*
X023032Y022156D01*
X023032Y022072D01*
X023093Y021925D01*
X023205Y021813D01*
X023352Y021752D01*
X023908Y021752D01*
X024055Y021813D01*
X024167Y021925D01*
X024228Y022072D01*
X024228Y022628D01*
X024167Y022775D01*
X024055Y022887D01*
X023908Y022948D01*
X023824Y022948D01*
X023190Y023582D01*
X023190Y025211D01*
X023105Y025417D01*
X021605Y026917D01*
X021447Y027075D01*
X021241Y027160D01*
X020690Y027160D01*
X020690Y027461D01*
X020605Y027667D01*
X019855Y028417D01*
X019822Y028450D01*
X020364Y028450D01*
X020524Y028516D01*
X020539Y028532D01*
X020562Y028520D01*
X020586Y028500D01*
X020639Y028482D01*
X020688Y028457D01*
X020720Y028455D01*
X020750Y028445D01*
X020805Y028449D01*
X020861Y028445D01*
X020891Y028455D01*
X020923Y028457D01*
X020972Y028482D01*
X021025Y028500D01*
X021049Y028520D01*
X021077Y028535D01*
X021114Y028577D01*
X021138Y028597D01*
X021219Y028516D01*
X021379Y028450D01*
X021947Y028450D01*
X021993Y028469D01*
X022039Y028450D01*
X022476Y028450D01*
X022521Y028469D01*
X022567Y028450D01*
X023135Y028450D01*
X023295Y028516D01*
X023313Y028534D01*
X023331Y028516D01*
X023491Y028450D01*
X023927Y028450D01*
X024087Y028516D01*
X024105Y028534D01*
X024123Y028516D01*
X024283Y028450D01*
X024851Y028450D01*
X024897Y028469D01*
X024943Y028450D01*
X025116Y028450D01*
X025276Y028516D01*
X025398Y028639D01*
X025414Y028677D01*
X025443Y028648D01*
X025574Y028516D01*
X025734Y028450D01*
X026303Y028450D01*
X026463Y028516D01*
X026585Y028639D01*
X026651Y028798D01*
X026651Y029700D01*
X026831Y029700D01*
X026876Y029719D01*
X026922Y029700D01*
X027491Y029700D01*
X027651Y029766D01*
X027782Y029898D01*
X027905Y030020D01*
X027971Y030180D01*
X027971Y030617D01*
X027905Y030777D01*
X027773Y030909D01*
X027651Y031031D01*
X027491Y031097D01*
X027409Y031097D01*
X027378Y031172D01*
X027354Y031196D01*
X028248Y031196D01*
X028224Y031172D01*
X028158Y031012D01*
X028158Y030048D01*
X028224Y029889D01*
X028346Y029766D01*
X028506Y029700D01*
X028679Y029700D01*
X028839Y029766D01*
X028856Y029783D01*
X028873Y029766D01*
X029033Y029700D01*
X029206Y029700D01*
X029318Y029746D01*
X029430Y029700D01*
X029998Y029700D01*
X030044Y029719D01*
X030090Y029700D01*
X030263Y029700D01*
X030423Y029766D01*
X030440Y029783D01*
X030457Y029766D01*
X030617Y029700D01*
X030790Y029700D01*
X030836Y029719D01*
X030882Y029700D01*
X031055Y029700D01*
X031215Y029766D01*
X031232Y029783D01*
X031249Y029766D01*
X031409Y029700D01*
X031582Y029700D01*
X031628Y029719D01*
X031674Y029700D01*
X031847Y029700D01*
X032007Y029766D01*
X032024Y029783D01*
X032041Y029766D01*
X032201Y029700D01*
X032374Y029700D01*
X032486Y029746D01*
X032597Y029700D01*
X033034Y029700D01*
X033146Y029746D01*
X033257Y029700D01*
X033694Y029700D01*
X033740Y029719D01*
X033785Y029700D01*
X033958Y029700D01*
X034004Y029719D01*
X034049Y029700D01*
X034222Y029700D01*
X034267Y029719D01*
X034312Y029700D01*
X034485Y029700D01*
X034645Y029766D01*
X034768Y029889D01*
X034834Y030048D01*
X034834Y030617D01*
X034768Y030777D01*
X034645Y030899D01*
X034514Y031031D01*
X034354Y031097D01*
X034181Y031097D01*
X034135Y031078D01*
X034090Y031097D01*
X033911Y031097D01*
X033911Y031144D01*
X033889Y031196D01*
X036299Y031196D01*
X036275Y031172D01*
X036208Y031012D01*
X036208Y030920D01*
X036097Y031031D01*
X035937Y031097D01*
X035501Y031097D01*
X035341Y031031D01*
X035219Y030909D01*
X035087Y030777D01*
X035021Y030617D01*
X035021Y030180D01*
X035087Y030020D01*
X035209Y029898D01*
X034772Y029898D01*
X034834Y030057D02*
X035072Y030057D01*
X035021Y030215D02*
X034834Y030215D01*
X034834Y030374D02*
X035021Y030374D01*
X035021Y030532D02*
X034834Y030532D01*
X034803Y030691D02*
X035051Y030691D01*
X035159Y030849D02*
X034695Y030849D01*
X034537Y031008D02*
X035318Y031008D01*
X036121Y031008D02*
X036208Y031008D01*
X036272Y031166D02*
X033902Y031166D01*
X035209Y029898D02*
X035341Y029766D01*
X035501Y029700D01*
X035937Y029700D01*
X036049Y029746D01*
X036161Y029700D01*
X036466Y029700D01*
X036626Y029766D01*
X036643Y029784D01*
X036661Y029766D01*
X036820Y029700D01*
X036993Y029700D01*
X037153Y029766D01*
X037171Y029784D01*
X037189Y029766D01*
X037349Y029700D01*
X037654Y029700D01*
X037813Y029766D01*
X037936Y029889D01*
X038002Y030048D01*
X038002Y030353D01*
X037936Y030513D01*
X037813Y030636D01*
X037654Y030702D01*
X037605Y030702D01*
X037605Y031012D01*
X037539Y031172D01*
X037515Y031196D01*
X043850Y031196D01*
X043850Y002209D01*
X043840Y002248D01*
X043704Y002482D01*
X043512Y002674D01*
X043278Y002810D01*
X043016Y002880D01*
X042744Y002880D01*
X042482Y002810D01*
X042248Y002674D01*
X042056Y002482D01*
X041920Y002248D01*
X041850Y001986D01*
X041850Y001714D01*
X041920Y001452D01*
X042056Y001218D01*
X042248Y001026D01*
X042482Y000890D01*
X042744Y000820D01*
X043016Y000820D01*
X043278Y000890D01*
X043512Y001026D01*
X043704Y001218D01*
X043840Y001452D01*
X043850Y001491D01*
X043850Y000500D01*
X005280Y000500D01*
X005280Y029762D01*
X005306Y029718D01*
X005498Y029526D01*
X005732Y029390D01*
X005994Y029320D01*
X006266Y029320D01*
X006528Y029390D01*
X006762Y029526D01*
X006954Y029718D01*
X007090Y029952D01*
X007160Y030214D01*
X007160Y030486D01*
X007090Y030748D01*
X006954Y030982D01*
X006762Y031174D01*
X006724Y031196D01*
X013202Y031196D01*
X013169Y031163D01*
X013046Y031040D01*
X012980Y030880D01*
X012980Y030180D01*
X013046Y030020D01*
X013095Y029971D01*
X013046Y029922D01*
X012980Y029762D01*
X012980Y028798D01*
X013037Y028660D01*
X012379Y028660D01*
X012379Y029455D01*
X012392Y029467D01*
X012495Y029716D01*
X012495Y029984D01*
X012392Y030233D01*
X012202Y030423D01*
X011953Y030526D01*
X011685Y030526D01*
X011436Y030423D01*
X011246Y030233D01*
X011143Y029984D01*
X011143Y029716D01*
X011246Y029467D01*
X011259Y029455D01*
X011259Y028630D01*
X011001Y028630D01*
X011108Y028569D02*
X011001Y028462D01*
X011001Y029455D01*
X011014Y029467D01*
X011117Y029716D01*
X011117Y029984D01*
X011014Y030233D01*
X010824Y030423D01*
X010575Y030526D01*
X010307Y030526D01*
X010058Y030423D01*
X009868Y030233D01*
X009765Y029984D01*
X009765Y029716D01*
X009868Y029467D01*
X009881Y029455D01*
X009881Y028761D01*
X009533Y028630D01*
X009005Y028630D01*
X008858Y028569D01*
X008746Y028457D01*
X008685Y028309D01*
X008685Y027660D01*
X008250Y027660D01*
X008158Y027698D01*
X007602Y027698D01*
X007455Y027637D01*
X007343Y027525D01*
X007282Y027378D01*
X007282Y026822D01*
X007343Y026675D01*
X007455Y026563D01*
X007602Y026502D01*
X008158Y026502D01*
X008250Y026540D01*
X009491Y026540D01*
X009564Y026570D01*
X009755Y026570D01*
X009902Y026631D01*
X010014Y026743D01*
X010075Y026891D01*
X010075Y027561D01*
X010059Y027600D01*
X010075Y027637D01*
X010482Y027790D01*
X010552Y027790D01*
X010758Y027875D01*
X010916Y028033D01*
X010935Y028079D01*
X010935Y027639D01*
X010996Y027492D01*
X011108Y027379D01*
X011155Y027360D01*
X011155Y027274D01*
X011582Y027274D01*
X011582Y027178D01*
X011155Y027178D01*
X011155Y026946D01*
X011167Y026901D01*
X011191Y026860D01*
X011224Y026826D01*
X011265Y026802D01*
X011311Y026790D01*
X011582Y026790D01*
X011582Y027178D01*
X011678Y027178D01*
X011678Y027274D01*
X012105Y027274D01*
X012105Y027360D01*
X012152Y027379D01*
X012264Y027492D01*
X012284Y027540D01*
X019148Y027540D01*
X019570Y027118D01*
X019570Y026489D01*
X019655Y026283D01*
X019813Y026125D01*
X019922Y026080D01*
X019792Y026080D01*
X019718Y026068D01*
X019646Y026045D01*
X019578Y026011D01*
X019517Y025966D01*
X019464Y025913D01*
X019419Y025852D01*
X019385Y025784D01*
X019362Y025712D01*
X019350Y025638D01*
X019350Y025620D01*
X020110Y025620D01*
X020110Y025580D01*
X019350Y025580D01*
X019350Y025562D01*
X019362Y025488D01*
X019385Y025416D01*
X019419Y025348D01*
X019464Y025287D01*
X019517Y025234D01*
X019522Y025230D01*
X019433Y025193D01*
X019237Y024997D01*
X019130Y024739D01*
X019130Y024461D01*
X019237Y024203D01*
X019340Y024100D01*
X019237Y023997D01*
X019130Y023739D01*
X019130Y023461D01*
X019237Y023203D01*
X019433Y023007D01*
X019570Y022950D01*
X019570Y022082D01*
X018648Y021160D01*
X014250Y021160D01*
X014158Y021198D01*
X013686Y021198D01*
X013686Y021504D01*
X013733Y021457D01*
X013991Y021350D01*
X014269Y021350D01*
X014527Y021457D01*
X014630Y021560D01*
X014733Y021457D01*
X014991Y021350D01*
X015269Y021350D01*
X015527Y021457D01*
X015630Y021560D01*
X015733Y021457D01*
X015991Y021350D01*
X016269Y021350D01*
X016527Y021457D01*
X016630Y021560D01*
X016733Y021457D01*
X016991Y021350D01*
X017269Y021350D01*
X017527Y021457D01*
X017630Y021560D01*
X017733Y021457D01*
X017991Y021350D01*
X018269Y021350D01*
X018527Y021457D01*
X018723Y021653D01*
X018830Y021911D01*
X018830Y022789D01*
X018723Y023047D01*
X018527Y023243D01*
X018269Y023350D01*
X017991Y023350D01*
X017733Y023243D01*
X017630Y023140D01*
X017527Y023243D01*
X017269Y023350D01*
X016991Y023350D01*
X016733Y023243D01*
X016630Y023140D01*
X016527Y023243D01*
X016269Y023350D01*
X015991Y023350D01*
X015733Y023243D01*
X015630Y023140D01*
X015527Y023243D01*
X015269Y023350D01*
X015025Y023350D01*
X015116Y023388D01*
X015362Y023633D01*
X015495Y023954D01*
X015495Y024664D01*
X016323Y024664D01*
X016358Y024629D01*
X016405Y024610D01*
X016405Y024524D01*
X016832Y024524D01*
X016832Y024428D01*
X016405Y024428D01*
X016405Y024196D01*
X016417Y024151D01*
X016441Y024110D01*
X016474Y024076D01*
X016515Y024052D01*
X016561Y024040D01*
X016832Y024040D01*
X016832Y024428D01*
X016928Y024428D01*
X016928Y024524D01*
X017355Y024524D01*
X017355Y024610D01*
X017402Y024629D01*
X017514Y024742D01*
X017575Y024889D01*
X017575Y025559D01*
X017514Y025707D01*
X017402Y025819D01*
X017255Y025880D01*
X016505Y025880D01*
X016358Y025819D01*
X016323Y025784D01*
X015145Y025784D01*
X015116Y025812D01*
X014796Y025945D01*
X014449Y025945D01*
X014128Y025812D01*
X013882Y025567D01*
X013874Y025547D01*
X013866Y025567D01*
X013620Y025812D01*
X013300Y025945D01*
X012953Y025945D01*
X012632Y025812D01*
X012386Y025567D01*
X012378Y025547D01*
X012370Y025567D01*
X012124Y025812D01*
X011804Y025945D01*
X011456Y025945D01*
X011136Y025812D01*
X010890Y025567D01*
X010758Y025246D01*
X010758Y023954D01*
X010890Y023633D01*
X011136Y023388D01*
X011456Y023255D01*
X011804Y023255D01*
X012124Y023388D01*
X012370Y023633D01*
X012378Y023653D01*
X012386Y023633D01*
X012566Y023454D01*
X012566Y019876D01*
X012555Y019887D01*
X012408Y019948D01*
X011852Y019948D01*
X011705Y019887D01*
X011593Y019775D01*
X011532Y019628D01*
X011532Y019160D01*
X011486Y019160D01*
X011160Y019486D01*
X011160Y019725D01*
X011099Y019872D01*
X010987Y019984D01*
X010839Y020045D01*
X010169Y020045D01*
X010130Y020029D01*
X010091Y020045D01*
X009853Y020045D01*
X009731Y020167D01*
X009573Y020325D01*
X009367Y020410D01*
X007730Y020410D01*
X007773Y020453D01*
X007880Y020711D01*
X007880Y020989D01*
X007773Y021247D01*
X007577Y021443D01*
X007488Y021480D01*
X007493Y021484D01*
X007546Y021537D01*
X007591Y021598D01*
X007625Y021666D01*
X007648Y021738D01*
X007660Y021812D01*
X007660Y021830D01*
X006900Y021830D01*
X006900Y021870D01*
X006860Y021870D01*
X006860Y022330D01*
X006542Y022330D01*
X006468Y022318D01*
X006396Y022295D01*
X006328Y022261D01*
X006267Y022216D01*
X006214Y022163D01*
X006169Y022102D01*
X006135Y022034D01*
X006112Y021962D01*
X006100Y021888D01*
X006100Y021870D01*
X006860Y021870D01*
X006860Y021830D01*
X006100Y021830D01*
X006100Y021812D01*
X006112Y021738D01*
X006135Y021666D01*
X006169Y021598D01*
X006214Y021537D01*
X006267Y021484D01*
X006272Y021480D01*
X006183Y021443D01*
X005987Y021247D01*
X005880Y020989D01*
X005880Y020711D01*
X005987Y020453D01*
X006090Y020350D01*
X005987Y020247D01*
X005880Y019989D01*
X005880Y019711D01*
X005987Y019453D01*
X006090Y019350D01*
X005987Y019247D01*
X005880Y018989D01*
X005880Y018711D01*
X005900Y018662D01*
X005405Y018167D01*
X005320Y017961D01*
X005320Y006739D01*
X005405Y006533D01*
X005900Y006038D01*
X005880Y005989D01*
X005880Y005711D01*
X005987Y005453D01*
X006090Y005350D01*
X005987Y005247D01*
X005880Y004989D01*
X005880Y004711D01*
X005987Y004453D01*
X006090Y004350D01*
X005987Y004247D01*
X005880Y003989D01*
X005880Y003711D01*
X005987Y003453D01*
X006183Y003257D01*
X006441Y003150D01*
X007319Y003150D01*
X007577Y003257D01*
X007773Y003453D01*
X007880Y003711D01*
X007880Y003989D01*
X007773Y004247D01*
X007670Y004350D01*
X007773Y004453D01*
X007880Y004711D01*
X007880Y004989D01*
X007773Y005247D01*
X007670Y005350D01*
X007773Y005453D01*
X007880Y005711D01*
X007880Y005989D01*
X007773Y006247D01*
X007577Y006443D01*
X007319Y006550D01*
X006972Y006550D01*
X006440Y007082D01*
X006440Y007650D01*
X006441Y007650D01*
X007319Y007650D01*
X007577Y007757D01*
X007773Y007953D01*
X007880Y008211D01*
X007880Y008489D01*
X007773Y008747D01*
X007670Y008850D01*
X007773Y008953D01*
X007880Y009211D01*
X007880Y009489D01*
X007773Y009747D01*
X007670Y009850D01*
X007773Y009953D01*
X007880Y010211D01*
X007880Y010489D01*
X007773Y010747D01*
X007577Y010943D01*
X007319Y011050D01*
X006441Y011050D01*
X006440Y011050D01*
X006440Y012650D01*
X006441Y012650D01*
X007319Y012650D01*
X007577Y012757D01*
X007610Y012790D01*
X008274Y012790D01*
X008350Y012714D01*
X008350Y012475D01*
X008411Y012328D01*
X008523Y012216D01*
X008671Y012155D01*
X009341Y012155D01*
X009380Y012171D01*
X009419Y012155D01*
X010089Y012155D01*
X010237Y012216D01*
X010311Y012290D01*
X012401Y012290D01*
X012380Y012239D01*
X012380Y011961D01*
X012487Y011703D01*
X012590Y011600D01*
X012487Y011497D01*
X012380Y011239D01*
X012380Y010961D01*
X012487Y010703D01*
X012590Y010600D01*
X012487Y010497D01*
X012380Y010239D01*
X012380Y009961D01*
X012487Y009703D01*
X012590Y009600D01*
X012487Y009497D01*
X012380Y009239D01*
X012380Y008961D01*
X012487Y008703D01*
X012590Y008600D01*
X012487Y008497D01*
X012380Y008239D01*
X012380Y007961D01*
X012487Y007703D01*
X012530Y007660D01*
X012362Y007660D01*
X010855Y009167D01*
X010697Y009325D01*
X010491Y009410D01*
X009982Y009410D01*
X010105Y009533D01*
X010605Y010033D01*
X010690Y010239D01*
X010690Y010835D01*
X010605Y011041D01*
X010447Y011199D01*
X010410Y011236D01*
X010410Y011475D01*
X010349Y011622D01*
X010237Y011734D01*
X010089Y011795D01*
X009419Y011795D01*
X009272Y011734D01*
X009159Y011622D01*
X009140Y011575D01*
X009054Y011575D01*
X009054Y011148D01*
X008958Y011148D01*
X008958Y011575D01*
X008726Y011575D01*
X008681Y011563D01*
X008640Y011539D01*
X008606Y011506D01*
X008582Y011465D01*
X008570Y011419D01*
X008570Y011148D01*
X008958Y011148D01*
X008958Y011052D01*
X009054Y011052D01*
X009054Y010625D01*
X009140Y010625D01*
X009159Y010578D01*
X009227Y010510D01*
X009107Y010510D01*
X008720Y010123D01*
X008720Y009577D01*
X008947Y009350D01*
X008720Y009123D01*
X008720Y008577D01*
X009107Y008190D01*
X009653Y008190D01*
X009753Y008290D01*
X010148Y008290D01*
X011813Y006625D01*
X012019Y006540D01*
X012530Y006540D01*
X012487Y006497D01*
X012380Y006239D01*
X012380Y005961D01*
X012487Y005703D01*
X012590Y005600D01*
X012487Y005497D01*
X012380Y005239D01*
X012380Y004961D01*
X012487Y004703D01*
X012683Y004507D01*
X012772Y004470D01*
X012767Y004466D01*
X012714Y004413D01*
X012669Y004352D01*
X012635Y004284D01*
X012612Y004212D01*
X012600Y004138D01*
X012600Y004120D01*
X013360Y004120D01*
X013360Y004080D01*
X012600Y004080D01*
X012600Y004062D01*
X012612Y003988D01*
X012635Y003916D01*
X012669Y003848D01*
X012714Y003787D01*
X012767Y003734D01*
X012772Y003730D01*
X012683Y003693D01*
X012487Y003497D01*
X012380Y003239D01*
X012380Y002961D01*
X012487Y002703D01*
X012683Y002507D01*
X012941Y002400D01*
X013819Y002400D01*
X014077Y002507D01*
X014273Y002703D01*
X014380Y002961D01*
X014380Y003239D01*
X014273Y003497D01*
X014077Y003693D01*
X013988Y003730D01*
X013993Y003734D01*
X014046Y003787D01*
X014091Y003848D01*
X014125Y003916D01*
X014148Y003988D01*
X014160Y004062D01*
X014160Y004080D01*
X013400Y004080D01*
X013400Y004120D01*
X014160Y004120D01*
X014160Y004138D01*
X014148Y004212D01*
X014125Y004284D01*
X014091Y004352D01*
X014046Y004413D01*
X013993Y004466D01*
X013988Y004470D01*
X014077Y004507D01*
X014273Y004703D01*
X014380Y004961D01*
X014380Y005239D01*
X014273Y005497D01*
X014170Y005600D01*
X014273Y005703D01*
X014380Y005961D01*
X014380Y006239D01*
X014273Y006497D01*
X014170Y006600D01*
X014273Y006703D01*
X014380Y006961D01*
X014380Y007239D01*
X014273Y007497D01*
X014170Y007600D01*
X014273Y007703D01*
X014380Y007961D01*
X014380Y008239D01*
X014273Y008497D01*
X014170Y008600D01*
X014273Y008703D01*
X014380Y008961D01*
X014380Y009239D01*
X014273Y009497D01*
X014170Y009600D01*
X014273Y009703D01*
X014380Y009961D01*
X014380Y010239D01*
X014273Y010497D01*
X014170Y010600D01*
X014273Y010703D01*
X014380Y010961D01*
X014380Y011239D01*
X014273Y011497D01*
X014170Y011600D01*
X014273Y011703D01*
X014380Y011961D01*
X014380Y012239D01*
X014273Y012497D01*
X014170Y012600D01*
X014273Y012703D01*
X014380Y012961D01*
X014380Y013239D01*
X014273Y013497D01*
X014170Y013600D01*
X014273Y013703D01*
X014380Y013961D01*
X014380Y014239D01*
X014273Y014497D01*
X014170Y014600D01*
X014273Y014703D01*
X014380Y014961D01*
X014380Y015239D01*
X014273Y015497D01*
X014170Y015600D01*
X014273Y015703D01*
X014380Y015961D01*
X014380Y016239D01*
X014273Y016497D01*
X014230Y016540D01*
X017398Y016540D01*
X018532Y015406D01*
X018532Y015322D01*
X018593Y015175D01*
X018705Y015063D01*
X018852Y015002D01*
X019408Y015002D01*
X019555Y015063D01*
X019570Y015078D01*
X019570Y008470D01*
X019532Y008378D01*
X019532Y007822D01*
X019593Y007675D01*
X019705Y007563D01*
X019852Y007502D01*
X020320Y007502D01*
X020320Y003739D01*
X020405Y003533D01*
X021155Y002783D01*
X021313Y002625D01*
X021519Y002540D01*
X021650Y002540D01*
X021683Y002507D01*
X021941Y002400D01*
X022819Y002400D01*
X023077Y002507D01*
X023273Y002703D01*
X023206Y002636D02*
X024590Y002636D01*
X024521Y002478D02*
X023006Y002478D01*
X023377Y002953D02*
X026210Y002953D01*
X026210Y003112D02*
X023380Y003112D01*
X023367Y003270D02*
X026210Y003270D01*
X026210Y003429D02*
X023302Y003429D01*
X023183Y003587D02*
X026210Y003587D01*
X026210Y003746D02*
X023004Y003746D01*
X023119Y003904D02*
X024769Y003904D01*
X024738Y003919D02*
X024806Y003885D01*
X024878Y003862D01*
X024952Y003850D01*
X024970Y003850D01*
X024970Y004610D01*
X025010Y004610D01*
X025010Y004650D01*
X025470Y004650D01*
X025470Y004968D01*
X025458Y005042D01*
X025435Y005114D01*
X025401Y005182D01*
X025356Y005243D01*
X025303Y005296D01*
X025242Y005341D01*
X025174Y005375D01*
X025102Y005398D01*
X025028Y005410D01*
X025010Y005410D01*
X025010Y004650D01*
X024970Y004650D01*
X024970Y005410D01*
X024952Y005410D01*
X024878Y005398D01*
X024806Y005375D01*
X024738Y005341D01*
X024677Y005296D01*
X024624Y005243D01*
X024579Y005182D01*
X024545Y005114D01*
X024522Y005042D01*
X024510Y004968D01*
X024510Y004650D01*
X024970Y004650D01*
X024970Y004610D01*
X024510Y004610D01*
X024510Y004292D01*
X024522Y004218D01*
X024545Y004146D01*
X024579Y004078D01*
X024624Y004017D01*
X024677Y003964D01*
X024738Y003919D01*
X024591Y004063D02*
X023160Y004063D01*
X023145Y004221D02*
X024521Y004221D01*
X024510Y004380D02*
X023070Y004380D01*
X023108Y004538D02*
X024510Y004538D01*
X024510Y004697D02*
X023266Y004697D01*
X023336Y004855D02*
X024510Y004855D01*
X024517Y005014D02*
X023380Y005014D01*
X023380Y005172D02*
X024575Y005172D01*
X024725Y005331D02*
X023342Y005331D01*
X023277Y005489D02*
X025316Y005489D01*
X025282Y005648D02*
X023217Y005648D01*
X023316Y005806D02*
X025282Y005806D01*
X025282Y005965D02*
X023380Y005965D01*
X023380Y006123D02*
X025282Y006123D01*
X025320Y006282D02*
X023362Y006282D01*
X023297Y006440D02*
X025056Y006440D01*
X024912Y006599D02*
X023171Y006599D01*
X023296Y006757D02*
X024302Y006757D01*
X024300Y006916D02*
X023361Y006916D01*
X023380Y007074D02*
X024688Y007074D01*
X024688Y007148D02*
X024300Y007148D01*
X024300Y007439D01*
X024313Y007484D01*
X024336Y007525D01*
X024370Y007559D01*
X024411Y007583D01*
X024457Y007595D01*
X024688Y007595D01*
X024688Y007148D01*
X024688Y007233D02*
X024784Y007233D01*
X024784Y007391D02*
X024688Y007391D01*
X024688Y007550D02*
X024784Y007550D01*
X024964Y007708D02*
X023275Y007708D01*
X023220Y007550D02*
X024360Y007550D01*
X024300Y007391D02*
X023317Y007391D01*
X023380Y007233D02*
X024300Y007233D01*
X024688Y006916D02*
X024784Y006916D01*
X024784Y006757D02*
X024688Y006757D01*
X024964Y007867D02*
X023341Y007867D01*
X023380Y008025D02*
X024964Y008025D01*
X024964Y008184D02*
X023380Y008184D01*
X023337Y008342D02*
X024964Y008342D01*
X024964Y008501D02*
X023269Y008501D01*
X023229Y008659D02*
X024964Y008659D01*
X024964Y008818D02*
X023321Y008818D01*
X023380Y008976D02*
X024964Y008976D01*
X024964Y009135D02*
X023380Y009135D01*
X023358Y009293D02*
X024964Y009293D01*
X024964Y009452D02*
X023292Y009452D01*
X023180Y009610D02*
X025018Y009610D01*
X025100Y009769D02*
X023300Y009769D01*
X023366Y009927D02*
X025100Y009927D01*
X025146Y010086D02*
X023380Y010086D01*
X023378Y010244D02*
X025196Y010244D01*
X025196Y010403D02*
X023312Y010403D01*
X023209Y010561D02*
X025196Y010561D01*
X025196Y010720D02*
X023014Y010720D01*
X023106Y010878D02*
X025196Y010878D01*
X025196Y011037D02*
X023156Y011037D01*
X023151Y011195D02*
X025196Y011195D01*
X025196Y011354D02*
X023089Y011354D01*
X023082Y011512D02*
X025196Y011512D01*
X025196Y011671D02*
X023240Y011671D01*
X023325Y011829D02*
X025196Y011829D01*
X025196Y011988D02*
X023380Y011988D01*
X023380Y012146D02*
X025196Y012146D01*
X025196Y012305D02*
X023353Y012305D01*
X023287Y012463D02*
X025196Y012463D01*
X025196Y012622D02*
X023191Y012622D01*
X023305Y012780D02*
X025196Y012780D01*
X025196Y012939D02*
X023371Y012939D01*
X023380Y013097D02*
X025196Y013097D01*
X025196Y013256D02*
X023373Y013256D01*
X023308Y013414D02*
X025196Y013414D01*
X026065Y014207D02*
X029783Y014207D01*
X029820Y014297D02*
X029700Y014007D01*
X029700Y013693D01*
X029820Y013403D01*
X030043Y013180D01*
X030333Y013060D01*
X031427Y013060D01*
X031717Y013180D01*
X031940Y013403D01*
X032060Y013693D01*
X032060Y014007D01*
X031940Y014297D01*
X031717Y014520D01*
X031427Y014640D01*
X031190Y014640D01*
X031190Y015540D01*
X031449Y015540D01*
X031523Y015466D01*
X031671Y015405D01*
X032341Y015405D01*
X032380Y015421D01*
X032419Y015405D01*
X033089Y015405D01*
X033237Y015466D01*
X033311Y015540D01*
X033320Y015540D01*
X033320Y014635D01*
X033043Y014520D01*
X032820Y014297D01*
X032700Y014007D01*
X032700Y013693D01*
X032820Y013403D01*
X033043Y013180D01*
X033333Y013060D01*
X034427Y013060D01*
X034717Y013180D01*
X034940Y013403D01*
X035060Y013693D01*
X035060Y014007D01*
X034940Y014297D01*
X034717Y014520D01*
X034440Y014635D01*
X034440Y016211D01*
X034355Y016417D01*
X034197Y016575D01*
X033991Y016660D01*
X033311Y016660D01*
X033237Y016734D01*
X033089Y016795D01*
X032566Y016795D01*
X032566Y017768D01*
X032481Y017974D01*
X032323Y018132D01*
X032239Y018216D01*
X032239Y018376D01*
X032178Y018523D01*
X032065Y018636D01*
X031918Y018697D01*
X031373Y018697D01*
X031373Y018750D01*
X031312Y018897D01*
X031257Y018952D01*
X031257Y020020D01*
X031172Y020226D01*
X031075Y020323D01*
X031075Y020414D01*
X033633Y020414D01*
X033697Y020350D01*
X033470Y020123D01*
X033470Y019982D01*
X033405Y019917D01*
X033320Y019711D01*
X033320Y018781D01*
X033246Y018707D01*
X033185Y018559D01*
X033185Y017889D01*
X033246Y017742D01*
X033358Y017629D01*
X033405Y017610D01*
X033405Y017524D01*
X033832Y017524D01*
X033832Y017428D01*
X033405Y017428D01*
X033405Y017196D01*
X033417Y017151D01*
X033441Y017110D01*
X033474Y017076D01*
X033515Y017052D01*
X033561Y017040D01*
X033832Y017040D01*
X033832Y017428D01*
X033928Y017428D01*
X033928Y017524D01*
X034355Y017524D01*
X034355Y017610D01*
X034402Y017629D01*
X034514Y017742D01*
X034575Y017889D01*
X034575Y018559D01*
X034514Y018707D01*
X034440Y018781D01*
X034440Y019227D01*
X034790Y019577D01*
X034790Y020123D01*
X034563Y020350D01*
X034790Y020577D01*
X034790Y021123D01*
X034403Y021510D01*
X034175Y021510D01*
X034117Y021534D01*
X030937Y021534D01*
X030902Y021569D01*
X030755Y021630D01*
X030005Y021630D01*
X029858Y021569D01*
X029823Y021534D01*
X028769Y021534D01*
X028563Y021449D01*
X028405Y021291D01*
X028320Y021085D01*
X028320Y019720D01*
X028282Y019628D01*
X028282Y019072D01*
X028343Y018925D01*
X028455Y018813D01*
X028602Y018752D01*
X029158Y018752D01*
X029305Y018813D01*
X029417Y018925D01*
X029478Y019072D01*
X029478Y019628D01*
X029440Y019720D01*
X029440Y020414D01*
X029685Y020414D01*
X029685Y019891D01*
X029746Y019743D01*
X029858Y019631D01*
X030005Y019570D01*
X030137Y019570D01*
X030137Y018952D01*
X030082Y018897D01*
X030021Y018750D01*
X030021Y018198D01*
X030082Y018051D01*
X030195Y017938D01*
X030241Y017919D01*
X030241Y017744D01*
X030678Y017744D01*
X030678Y017708D01*
X030241Y017708D01*
X030241Y017505D01*
X030254Y017460D01*
X030277Y017419D01*
X030311Y017385D01*
X030352Y017361D01*
X030398Y017349D01*
X030679Y017349D01*
X030679Y017708D01*
X030715Y017708D01*
X030715Y017349D01*
X030996Y017349D01*
X031042Y017361D01*
X031083Y017385D01*
X031117Y017419D01*
X031140Y017460D01*
X031153Y017505D01*
X031153Y017526D01*
X031208Y017503D01*
X031368Y017503D01*
X031446Y017425D01*
X031446Y016660D01*
X030519Y016660D01*
X030313Y016575D01*
X030155Y016417D01*
X030070Y016211D01*
X030070Y014531D01*
X030043Y014520D01*
X029820Y014297D01*
X029888Y014365D02*
X025907Y014365D01*
X025748Y014524D02*
X030052Y014524D01*
X030070Y014682D02*
X025130Y014682D01*
X025288Y014841D02*
X030070Y014841D01*
X030070Y014999D02*
X025447Y014999D01*
X025605Y015158D02*
X030070Y015158D01*
X030070Y015316D02*
X025764Y015316D01*
X024973Y016109D02*
X023380Y016109D01*
X023368Y016267D02*
X025100Y016267D01*
X025100Y016426D02*
X023303Y016426D01*
X023186Y016584D02*
X025145Y016584D01*
X025293Y016743D02*
X023290Y016743D01*
X023355Y016901D02*
X026070Y016901D01*
X026070Y017060D02*
X023380Y017060D01*
X023380Y017218D02*
X026070Y017218D01*
X026070Y017377D02*
X023323Y017377D01*
X023235Y017535D02*
X026070Y017535D01*
X026070Y017694D02*
X023076Y017694D01*
X022420Y017852D02*
X026070Y017852D01*
X026070Y018011D02*
X022261Y018011D01*
X022103Y018169D02*
X026070Y018169D01*
X026070Y018328D02*
X022569Y018328D01*
X022692Y018486D02*
X026070Y018486D01*
X026070Y018645D02*
X022728Y018645D01*
X022728Y018803D02*
X026070Y018803D01*
X026070Y018962D02*
X022728Y018962D01*
X022728Y019120D02*
X026070Y019120D01*
X026070Y019279D02*
X022690Y019279D01*
X022690Y019437D02*
X026070Y019437D01*
X026070Y019596D02*
X022690Y019596D01*
X022690Y019754D02*
X025934Y019754D01*
X025776Y019913D02*
X022690Y019913D01*
X022690Y020071D02*
X024976Y020071D01*
X024817Y020230D02*
X024632Y020230D01*
X024380Y020230D02*
X024380Y020230D01*
X024380Y020160D02*
X024380Y020600D01*
X024380Y020600D01*
X024380Y020600D01*
X023940Y020600D01*
X023940Y020782D01*
X024198Y021040D01*
X024380Y021040D01*
X024380Y020600D01*
X023940Y020600D01*
X023940Y020418D01*
X024198Y020160D01*
X024380Y020160D01*
X024380Y020388D02*
X024380Y020388D01*
X024380Y020547D02*
X024380Y020547D01*
X024380Y020705D02*
X024380Y020705D01*
X024380Y020864D02*
X024380Y020864D01*
X024380Y021022D02*
X024380Y021022D01*
X024580Y021022D02*
X024869Y021022D01*
X025027Y021181D02*
X022341Y021181D01*
X022183Y021339D02*
X028453Y021339D01*
X028359Y021181D02*
X025733Y021181D01*
X026250Y021022D02*
X028320Y021022D01*
X028320Y020864D02*
X026408Y020864D01*
X026567Y020705D02*
X028320Y020705D01*
X028320Y020547D02*
X026725Y020547D01*
X026884Y020388D02*
X028320Y020388D01*
X028320Y020230D02*
X027042Y020230D01*
X027145Y020071D02*
X028320Y020071D01*
X028320Y019913D02*
X027190Y019913D01*
X027190Y019754D02*
X028320Y019754D01*
X028282Y019596D02*
X027190Y019596D01*
X027190Y019437D02*
X028282Y019437D01*
X028282Y019279D02*
X027190Y019279D01*
X027190Y019120D02*
X028282Y019120D01*
X028328Y018962D02*
X027190Y018962D01*
X027190Y018803D02*
X028479Y018803D01*
X029281Y018803D02*
X030043Y018803D01*
X030021Y018645D02*
X027190Y018645D01*
X027190Y018486D02*
X030021Y018486D01*
X030021Y018328D02*
X027190Y018328D01*
X027190Y018169D02*
X030033Y018169D01*
X030122Y018011D02*
X027190Y018011D01*
X027190Y017852D02*
X030241Y017852D01*
X030241Y017694D02*
X027190Y017694D01*
X027190Y017535D02*
X030241Y017535D01*
X030326Y017377D02*
X027190Y017377D01*
X027190Y017218D02*
X031446Y017218D01*
X031446Y017060D02*
X027190Y017060D01*
X027190Y016901D02*
X031446Y016901D01*
X031446Y016743D02*
X027190Y016743D01*
X027190Y016584D02*
X030335Y016584D01*
X030164Y016426D02*
X027190Y016426D01*
X027190Y016267D02*
X030093Y016267D01*
X030070Y016109D02*
X027187Y016109D01*
X027160Y015950D02*
X030070Y015950D01*
X030070Y015792D02*
X027160Y015792D01*
X027122Y015633D02*
X030070Y015633D01*
X030070Y015475D02*
X026995Y015475D01*
X026224Y014048D02*
X029717Y014048D01*
X029700Y013890D02*
X026294Y013890D01*
X026316Y013731D02*
X029700Y013731D01*
X029750Y013573D02*
X026316Y013573D01*
X026316Y013414D02*
X029815Y013414D01*
X029967Y013256D02*
X026316Y013256D01*
X026316Y013097D02*
X030243Y013097D01*
X031517Y013097D02*
X033243Y013097D01*
X032967Y013256D02*
X031793Y013256D01*
X031944Y013414D02*
X032815Y013414D01*
X032750Y013573D02*
X032010Y013573D01*
X032060Y013731D02*
X032700Y013731D01*
X032700Y013890D02*
X032060Y013890D01*
X032043Y014048D02*
X032717Y014048D01*
X032783Y014207D02*
X031977Y014207D01*
X031872Y014365D02*
X032888Y014365D01*
X033052Y014524D02*
X031708Y014524D01*
X031190Y014682D02*
X033320Y014682D01*
X033320Y014841D02*
X031190Y014841D01*
X031190Y014999D02*
X033320Y014999D01*
X033320Y015158D02*
X031190Y015158D01*
X031190Y015316D02*
X033320Y015316D01*
X033320Y015475D02*
X033245Y015475D01*
X034440Y015475D02*
X037820Y015475D01*
X037820Y015633D02*
X034440Y015633D01*
X034440Y015792D02*
X037820Y015792D01*
X037820Y015950D02*
X034440Y015950D01*
X034440Y016109D02*
X037881Y016109D01*
X037905Y016167D02*
X037820Y015961D01*
X037820Y014635D01*
X037543Y014520D01*
X037320Y014297D01*
X037200Y014007D01*
X037200Y013693D01*
X037320Y013403D01*
X037543Y013180D01*
X037833Y013060D01*
X038927Y013060D01*
X039217Y013180D01*
X039440Y013403D01*
X039560Y013693D01*
X039560Y014007D01*
X039440Y014297D01*
X039217Y014520D01*
X038940Y014635D01*
X038940Y015155D01*
X039591Y015155D01*
X039630Y015171D01*
X039669Y015155D01*
X040339Y015155D01*
X040487Y015216D01*
X040561Y015290D01*
X040820Y015290D01*
X040820Y014635D01*
X040543Y014520D01*
X040320Y014297D01*
X040200Y014007D01*
X040200Y013693D01*
X040320Y013403D01*
X040543Y013180D01*
X040833Y013060D01*
X041927Y013060D01*
X042217Y013180D01*
X042440Y013403D01*
X042560Y013693D01*
X042560Y014007D01*
X042440Y014297D01*
X042217Y014520D01*
X041940Y014635D01*
X041940Y015961D01*
X041855Y016167D01*
X041697Y016325D01*
X041491Y016410D01*
X040561Y016410D01*
X040487Y016484D01*
X040339Y016545D01*
X039816Y016545D01*
X039816Y018018D01*
X039739Y018205D01*
X039739Y018376D01*
X039678Y018523D01*
X039565Y018636D01*
X039418Y018697D01*
X038873Y018697D01*
X038873Y018750D01*
X038812Y018897D01*
X038757Y018952D01*
X038757Y019770D01*
X038672Y019976D01*
X038575Y020073D01*
X038575Y020164D01*
X040761Y020164D01*
X040720Y020123D01*
X040720Y019577D01*
X040820Y019477D01*
X040820Y018781D01*
X040746Y018707D01*
X040685Y018559D01*
X040685Y017889D01*
X040746Y017742D01*
X040858Y017629D01*
X040905Y017610D01*
X040905Y017524D01*
X041332Y017524D01*
X041332Y017428D01*
X040905Y017428D01*
X040905Y017196D01*
X040917Y017151D01*
X040941Y017110D01*
X040974Y017076D01*
X041015Y017052D01*
X041061Y017040D01*
X041332Y017040D01*
X041332Y017428D01*
X041428Y017428D01*
X041428Y017524D01*
X041855Y017524D01*
X041855Y017610D01*
X041902Y017629D01*
X042014Y017742D01*
X042075Y017889D01*
X042075Y018559D01*
X042014Y018707D01*
X041940Y018781D01*
X041940Y019477D01*
X042040Y019577D01*
X042040Y020123D01*
X041813Y020350D01*
X042040Y020577D01*
X042040Y021123D01*
X041653Y021510D01*
X041107Y021510D01*
X040881Y021284D01*
X038440Y021284D01*
X038440Y021961D01*
X038355Y022167D01*
X038197Y022325D01*
X037978Y022544D01*
X037978Y022628D01*
X037917Y022775D01*
X037805Y022887D01*
X037658Y022948D01*
X037102Y022948D01*
X036955Y022887D01*
X036843Y022775D01*
X036782Y022628D01*
X036782Y022072D01*
X036843Y021925D01*
X036955Y021813D01*
X037102Y021752D01*
X037186Y021752D01*
X037320Y021618D01*
X037320Y021281D01*
X037246Y021207D01*
X037185Y021059D01*
X037185Y020389D01*
X037201Y020350D01*
X037185Y020311D01*
X037185Y019641D01*
X037246Y019493D01*
X037358Y019381D01*
X037505Y019320D01*
X037637Y019320D01*
X037637Y018952D01*
X037582Y018897D01*
X037521Y018750D01*
X037521Y018198D01*
X037582Y018051D01*
X037695Y017938D01*
X037741Y017919D01*
X037741Y017744D01*
X038178Y017744D01*
X038178Y017708D01*
X037741Y017708D01*
X037741Y017505D01*
X037754Y017460D01*
X037777Y017419D01*
X037811Y017385D01*
X037852Y017361D01*
X037898Y017349D01*
X038179Y017349D01*
X038179Y017708D01*
X038215Y017708D01*
X038215Y017349D01*
X038496Y017349D01*
X038542Y017361D01*
X038583Y017385D01*
X038617Y017419D01*
X038640Y017460D01*
X038653Y017505D01*
X038653Y017526D01*
X038696Y017508D01*
X038696Y016410D01*
X038269Y016410D01*
X038063Y016325D01*
X037905Y016167D01*
X038005Y016267D02*
X034417Y016267D01*
X034346Y016426D02*
X038696Y016426D01*
X038696Y016584D02*
X034175Y016584D01*
X034199Y017040D02*
X033928Y017040D01*
X033928Y017428D01*
X034355Y017428D01*
X034355Y017196D01*
X034343Y017151D01*
X034319Y017110D01*
X034286Y017076D01*
X034245Y017052D01*
X034199Y017040D01*
X034257Y017060D02*
X038696Y017060D01*
X038696Y017218D02*
X034355Y017218D01*
X034355Y017377D02*
X037826Y017377D01*
X037741Y017535D02*
X034355Y017535D01*
X034466Y017694D02*
X037741Y017694D01*
X037741Y017852D02*
X034560Y017852D01*
X034575Y018011D02*
X037622Y018011D01*
X037533Y018169D02*
X034575Y018169D01*
X034575Y018328D02*
X037521Y018328D01*
X037521Y018486D02*
X034575Y018486D01*
X034540Y018645D02*
X037521Y018645D01*
X037543Y018803D02*
X034440Y018803D01*
X034440Y018962D02*
X037637Y018962D01*
X037637Y019120D02*
X034440Y019120D01*
X034492Y019279D02*
X037637Y019279D01*
X037302Y019437D02*
X034650Y019437D01*
X034790Y019596D02*
X037203Y019596D01*
X037185Y019754D02*
X034790Y019754D01*
X034790Y019913D02*
X037185Y019913D01*
X037185Y020071D02*
X034790Y020071D01*
X034684Y020230D02*
X037185Y020230D01*
X037185Y020388D02*
X034601Y020388D01*
X034760Y020547D02*
X037185Y020547D01*
X037185Y020705D02*
X034790Y020705D01*
X034790Y020864D02*
X037185Y020864D01*
X037185Y021022D02*
X034790Y021022D01*
X034733Y021181D02*
X037235Y021181D01*
X037320Y021339D02*
X034574Y021339D01*
X034416Y021498D02*
X037320Y021498D01*
X037282Y021656D02*
X021966Y021656D01*
X022024Y021498D02*
X028681Y021498D01*
X029440Y020388D02*
X029685Y020388D01*
X029685Y020230D02*
X029440Y020230D01*
X029440Y020071D02*
X029685Y020071D01*
X029685Y019913D02*
X029440Y019913D01*
X029440Y019754D02*
X029741Y019754D01*
X029944Y019596D02*
X029478Y019596D01*
X029478Y019437D02*
X030137Y019437D01*
X030137Y019279D02*
X029478Y019279D01*
X029478Y019120D02*
X030137Y019120D01*
X030137Y018962D02*
X029432Y018962D01*
X030679Y017694D02*
X030715Y017694D01*
X030715Y017535D02*
X030679Y017535D01*
X030679Y017377D02*
X030715Y017377D01*
X031068Y017377D02*
X031446Y017377D01*
X032566Y017377D02*
X033405Y017377D01*
X033405Y017535D02*
X032566Y017535D01*
X032566Y017694D02*
X033294Y017694D01*
X033200Y017852D02*
X032531Y017852D01*
X032445Y018011D02*
X033185Y018011D01*
X033185Y018169D02*
X032286Y018169D01*
X032239Y018328D02*
X033185Y018328D01*
X033185Y018486D02*
X032193Y018486D01*
X032045Y018645D02*
X033220Y018645D01*
X033320Y018803D02*
X031351Y018803D01*
X031257Y018962D02*
X033320Y018962D01*
X033320Y019120D02*
X031257Y019120D01*
X031257Y019279D02*
X033320Y019279D01*
X033320Y019437D02*
X031257Y019437D01*
X031257Y019596D02*
X033320Y019596D01*
X033338Y019754D02*
X031257Y019754D01*
X031257Y019913D02*
X033403Y019913D01*
X033470Y020071D02*
X031236Y020071D01*
X031168Y020230D02*
X033576Y020230D01*
X033659Y020388D02*
X031075Y020388D01*
X032566Y017218D02*
X033405Y017218D01*
X033503Y017060D02*
X032566Y017060D01*
X032566Y016901D02*
X038696Y016901D01*
X038696Y016743D02*
X033217Y016743D01*
X033832Y017060D02*
X033928Y017060D01*
X033928Y017218D02*
X033832Y017218D01*
X033832Y017377D02*
X033928Y017377D01*
X034440Y015316D02*
X037820Y015316D01*
X037820Y015158D02*
X034440Y015158D01*
X034440Y014999D02*
X037820Y014999D01*
X037820Y014841D02*
X034440Y014841D01*
X034440Y014682D02*
X037820Y014682D01*
X037552Y014524D02*
X034708Y014524D01*
X034872Y014365D02*
X037388Y014365D01*
X037283Y014207D02*
X034977Y014207D01*
X035043Y014048D02*
X037217Y014048D01*
X037200Y013890D02*
X035060Y013890D01*
X035060Y013731D02*
X037200Y013731D01*
X037250Y013573D02*
X035010Y013573D01*
X034944Y013414D02*
X037315Y013414D01*
X037467Y013256D02*
X034793Y013256D01*
X034517Y013097D02*
X037743Y013097D01*
X039017Y013097D02*
X040743Y013097D01*
X040467Y013256D02*
X039293Y013256D01*
X039444Y013414D02*
X040315Y013414D01*
X040250Y013573D02*
X039510Y013573D01*
X039560Y013731D02*
X040200Y013731D01*
X040200Y013890D02*
X039560Y013890D01*
X039543Y014048D02*
X040217Y014048D01*
X040283Y014207D02*
X039477Y014207D01*
X039372Y014365D02*
X040388Y014365D01*
X040552Y014524D02*
X039208Y014524D01*
X038940Y014682D02*
X040820Y014682D01*
X040820Y014841D02*
X038940Y014841D01*
X038940Y014999D02*
X040820Y014999D01*
X040820Y015158D02*
X040346Y015158D01*
X039662Y015158D02*
X039598Y015158D01*
X040545Y016426D02*
X043850Y016426D01*
X043850Y016584D02*
X039816Y016584D01*
X039816Y016743D02*
X043850Y016743D01*
X043850Y016901D02*
X039816Y016901D01*
X039816Y017060D02*
X041003Y017060D01*
X040905Y017218D02*
X039816Y017218D01*
X039816Y017377D02*
X040905Y017377D01*
X040905Y017535D02*
X039816Y017535D01*
X039816Y017694D02*
X040794Y017694D01*
X040700Y017852D02*
X039816Y017852D01*
X039816Y018011D02*
X040685Y018011D01*
X040685Y018169D02*
X039754Y018169D01*
X039739Y018328D02*
X040685Y018328D01*
X040685Y018486D02*
X039693Y018486D01*
X039545Y018645D02*
X040720Y018645D01*
X040820Y018803D02*
X038851Y018803D01*
X038757Y018962D02*
X040820Y018962D01*
X040820Y019120D02*
X038757Y019120D01*
X038757Y019279D02*
X040820Y019279D01*
X040820Y019437D02*
X038757Y019437D01*
X038757Y019596D02*
X040720Y019596D01*
X040720Y019754D02*
X038757Y019754D01*
X038698Y019913D02*
X040720Y019913D01*
X040720Y020071D02*
X038577Y020071D01*
X038440Y021339D02*
X040936Y021339D01*
X041094Y021498D02*
X038440Y021498D01*
X038440Y021656D02*
X043850Y021656D01*
X043850Y021498D02*
X041666Y021498D01*
X041824Y021339D02*
X043850Y021339D01*
X043850Y021181D02*
X041983Y021181D01*
X042040Y021022D02*
X043850Y021022D01*
X043850Y020864D02*
X042040Y020864D01*
X042040Y020705D02*
X043850Y020705D01*
X043850Y020547D02*
X042010Y020547D01*
X041851Y020388D02*
X043850Y020388D01*
X043850Y020230D02*
X041934Y020230D01*
X042040Y020071D02*
X043850Y020071D01*
X043850Y019913D02*
X042040Y019913D01*
X042040Y019754D02*
X043850Y019754D01*
X043850Y019596D02*
X042040Y019596D01*
X041940Y019437D02*
X043850Y019437D01*
X043850Y019279D02*
X041940Y019279D01*
X041940Y019120D02*
X043850Y019120D01*
X043850Y018962D02*
X041940Y018962D01*
X041940Y018803D02*
X043850Y018803D01*
X043850Y018645D02*
X042040Y018645D01*
X042075Y018486D02*
X043850Y018486D01*
X043850Y018328D02*
X042075Y018328D01*
X042075Y018169D02*
X043850Y018169D01*
X043850Y018011D02*
X042075Y018011D01*
X042060Y017852D02*
X043850Y017852D01*
X043850Y017694D02*
X041966Y017694D01*
X041855Y017535D02*
X043850Y017535D01*
X043850Y017377D02*
X041855Y017377D01*
X041855Y017428D02*
X041428Y017428D01*
X041428Y017040D01*
X041699Y017040D01*
X041745Y017052D01*
X041786Y017076D01*
X041819Y017110D01*
X041843Y017151D01*
X041855Y017196D01*
X041855Y017428D01*
X041855Y017218D02*
X043850Y017218D01*
X043850Y017060D02*
X041757Y017060D01*
X041428Y017060D02*
X041332Y017060D01*
X041332Y017218D02*
X041428Y017218D01*
X041428Y017377D02*
X041332Y017377D01*
X041755Y016267D02*
X043850Y016267D01*
X043850Y016109D02*
X041879Y016109D01*
X041940Y015950D02*
X043850Y015950D01*
X043850Y015792D02*
X041940Y015792D01*
X041940Y015633D02*
X043850Y015633D01*
X043850Y015475D02*
X041940Y015475D01*
X041940Y015316D02*
X043850Y015316D01*
X043850Y015158D02*
X041940Y015158D01*
X041940Y014999D02*
X043850Y014999D01*
X043850Y014841D02*
X041940Y014841D01*
X041940Y014682D02*
X043850Y014682D01*
X043850Y014524D02*
X042208Y014524D01*
X042372Y014365D02*
X043850Y014365D01*
X043850Y014207D02*
X042477Y014207D01*
X042543Y014048D02*
X043850Y014048D01*
X043850Y013890D02*
X042560Y013890D01*
X042560Y013731D02*
X043850Y013731D01*
X043850Y013573D02*
X042510Y013573D01*
X042444Y013414D02*
X043850Y013414D01*
X043850Y013256D02*
X042293Y013256D01*
X042017Y013097D02*
X043850Y013097D01*
X043850Y012939D02*
X026316Y012939D01*
X026316Y012780D02*
X043850Y012780D01*
X043850Y012622D02*
X026316Y012622D01*
X026316Y012463D02*
X043850Y012463D01*
X043850Y012305D02*
X026316Y012305D01*
X026316Y012146D02*
X043850Y012146D01*
X043850Y011988D02*
X026316Y011988D01*
X026316Y011829D02*
X043850Y011829D01*
X043850Y011671D02*
X026316Y011671D01*
X026316Y011512D02*
X043850Y011512D01*
X043850Y011354D02*
X026316Y011354D01*
X026316Y011195D02*
X043850Y011195D01*
X043850Y011037D02*
X026316Y011037D01*
X026316Y010878D02*
X043850Y010878D01*
X043850Y010720D02*
X026316Y010720D01*
X026316Y010561D02*
X043850Y010561D01*
X043850Y010403D02*
X026316Y010403D01*
X026963Y010244D02*
X043850Y010244D01*
X043850Y010086D02*
X027114Y010086D01*
X027160Y009927D02*
X043850Y009927D01*
X043850Y009769D02*
X027160Y009769D01*
X027286Y009610D02*
X043850Y009610D01*
X043850Y009452D02*
X027444Y009452D01*
X027603Y009293D02*
X043850Y009293D01*
X043850Y009135D02*
X027761Y009135D01*
X027920Y008976D02*
X043850Y008976D01*
X043850Y008818D02*
X028020Y008818D01*
X028064Y008659D02*
X043850Y008659D01*
X043850Y008501D02*
X042237Y008501D01*
X042217Y008520D02*
X041927Y008640D01*
X040833Y008640D01*
X040543Y008520D01*
X040320Y008297D01*
X040200Y008007D01*
X040200Y007693D01*
X040320Y007403D01*
X040543Y007180D01*
X040833Y007060D01*
X041927Y007060D01*
X042217Y007180D01*
X042440Y007403D01*
X042560Y007693D01*
X042560Y008007D01*
X042440Y008297D01*
X042217Y008520D01*
X042395Y008342D02*
X043850Y008342D01*
X043850Y008184D02*
X042487Y008184D01*
X042553Y008025D02*
X043850Y008025D01*
X043850Y007867D02*
X042560Y007867D01*
X042560Y007708D02*
X043850Y007708D01*
X043850Y007550D02*
X042501Y007550D01*
X042428Y007391D02*
X043850Y007391D01*
X043850Y007233D02*
X042270Y007233D01*
X041961Y007074D02*
X043850Y007074D01*
X043850Y006916D02*
X028407Y006916D01*
X028440Y006757D02*
X043850Y006757D01*
X043850Y006599D02*
X042027Y006599D01*
X041927Y006640D02*
X040833Y006640D01*
X040688Y006580D01*
X039072Y006580D01*
X038927Y006640D01*
X037833Y006640D01*
X037543Y006520D01*
X037320Y006297D01*
X037200Y006007D01*
X037200Y005693D01*
X037320Y005403D01*
X037543Y005180D01*
X037833Y005060D01*
X038927Y005060D01*
X039072Y005120D01*
X039150Y005120D01*
X039150Y004548D01*
X038927Y004640D01*
X037833Y004640D01*
X037543Y004520D01*
X037320Y004297D01*
X037200Y004007D01*
X037200Y003693D01*
X037320Y003403D01*
X037543Y003180D01*
X037833Y003060D01*
X038927Y003060D01*
X039150Y003152D01*
X039150Y002796D01*
X039019Y002850D01*
X038741Y002850D01*
X038483Y002743D01*
X038287Y002547D01*
X038180Y002289D01*
X038180Y001411D01*
X038287Y001153D01*
X038483Y000957D01*
X038741Y000850D01*
X039019Y000850D01*
X039277Y000957D01*
X039380Y001060D01*
X039483Y000957D01*
X039741Y000850D01*
X040019Y000850D01*
X040277Y000957D01*
X040380Y001060D01*
X040483Y000957D01*
X040741Y000850D01*
X041019Y000850D01*
X041277Y000957D01*
X041473Y001153D01*
X041580Y001411D01*
X041580Y002289D01*
X041473Y002547D01*
X041277Y002743D01*
X041019Y002850D01*
X040741Y002850D01*
X040610Y002796D01*
X040610Y003152D01*
X040833Y003060D01*
X041927Y003060D01*
X042217Y003180D01*
X042440Y003403D01*
X042560Y003693D01*
X042560Y004007D01*
X042440Y004297D01*
X042217Y004520D01*
X041927Y004640D01*
X040833Y004640D01*
X040610Y004548D01*
X040610Y005120D01*
X040688Y005120D01*
X040833Y005060D01*
X041927Y005060D01*
X042217Y005180D01*
X042440Y005403D01*
X042560Y005693D01*
X042560Y006007D01*
X042440Y006297D01*
X042217Y006520D01*
X041927Y006640D01*
X042297Y006440D02*
X043850Y006440D01*
X043850Y006282D02*
X042446Y006282D01*
X042512Y006123D02*
X043850Y006123D01*
X043850Y005965D02*
X042560Y005965D01*
X042560Y005806D02*
X043850Y005806D01*
X043850Y005648D02*
X042541Y005648D01*
X042476Y005489D02*
X043850Y005489D01*
X043850Y005331D02*
X042368Y005331D01*
X042198Y005172D02*
X043850Y005172D01*
X043850Y005014D02*
X040610Y005014D01*
X040610Y004855D02*
X043850Y004855D01*
X043850Y004697D02*
X040610Y004697D01*
X039150Y004697D02*
X032860Y004697D01*
X032860Y004855D02*
X039150Y004855D01*
X039150Y005014D02*
X032860Y005014D01*
X032860Y005120D02*
X033188Y005120D01*
X033333Y005060D01*
X034427Y005060D01*
X034717Y005180D01*
X034940Y005403D01*
X035060Y005693D01*
X035060Y006007D01*
X034940Y006297D01*
X034717Y006520D01*
X034427Y006640D01*
X033333Y006640D01*
X033188Y006580D01*
X031572Y006580D01*
X031427Y006640D01*
X030333Y006640D01*
X030043Y006520D01*
X029820Y006297D01*
X029700Y006007D01*
X029700Y005693D01*
X029820Y005403D01*
X030043Y005180D01*
X030333Y005060D01*
X031400Y005060D01*
X031400Y004640D01*
X030333Y004640D01*
X030043Y004520D01*
X029820Y004297D01*
X029700Y004007D01*
X029700Y003693D01*
X029820Y003403D01*
X030043Y003180D01*
X030333Y003060D01*
X031400Y003060D01*
X031400Y002796D01*
X031269Y002850D01*
X030991Y002850D01*
X030733Y002743D01*
X030537Y002547D01*
X030430Y002289D01*
X030430Y001411D01*
X030537Y001153D01*
X030733Y000957D01*
X030991Y000850D01*
X031269Y000850D01*
X031527Y000957D01*
X031630Y001060D01*
X031733Y000957D01*
X031991Y000850D01*
X032269Y000850D01*
X032527Y000957D01*
X032630Y001060D01*
X032733Y000957D01*
X032991Y000850D01*
X033269Y000850D01*
X033527Y000957D01*
X033723Y001153D01*
X033830Y001411D01*
X033830Y002289D01*
X033723Y002547D01*
X033527Y002743D01*
X033269Y002850D01*
X032991Y002850D01*
X032860Y002796D01*
X032860Y003363D01*
X033043Y003180D01*
X033333Y003060D01*
X034427Y003060D01*
X034717Y003180D01*
X034940Y003403D01*
X035060Y003693D01*
X035060Y004007D01*
X034940Y004297D01*
X034717Y004520D01*
X034427Y004640D01*
X033333Y004640D01*
X033043Y004520D01*
X032860Y004337D01*
X032860Y005120D01*
X032860Y004538D02*
X033087Y004538D01*
X032902Y004380D02*
X032860Y004380D01*
X032860Y003270D02*
X032953Y003270D01*
X032860Y003112D02*
X033209Y003112D01*
X033403Y002795D02*
X038607Y002795D01*
X038376Y002636D02*
X033634Y002636D01*
X033752Y002478D02*
X038258Y002478D01*
X038192Y002319D02*
X033818Y002319D01*
X033830Y002161D02*
X038180Y002161D01*
X038180Y002002D02*
X033830Y002002D01*
X033830Y001844D02*
X038180Y001844D01*
X038180Y001685D02*
X033830Y001685D01*
X033830Y001527D02*
X038180Y001527D01*
X038198Y001368D02*
X033812Y001368D01*
X033747Y001210D02*
X038263Y001210D01*
X038389Y001051D02*
X033621Y001051D01*
X033372Y000893D02*
X038638Y000893D01*
X039122Y000893D02*
X039638Y000893D01*
X039389Y001051D02*
X039371Y001051D01*
X040122Y000893D02*
X040638Y000893D01*
X040389Y001051D02*
X040371Y001051D01*
X041122Y000893D02*
X042479Y000893D01*
X042222Y001051D02*
X041371Y001051D01*
X041497Y001210D02*
X042064Y001210D01*
X041969Y001368D02*
X041562Y001368D01*
X041580Y001527D02*
X041900Y001527D01*
X041858Y001685D02*
X041580Y001685D01*
X041580Y001844D02*
X041850Y001844D01*
X041854Y002002D02*
X041580Y002002D01*
X041580Y002161D02*
X041897Y002161D01*
X041962Y002319D02*
X041568Y002319D01*
X041502Y002478D02*
X042053Y002478D01*
X042209Y002636D02*
X041384Y002636D01*
X041153Y002795D02*
X042456Y002795D01*
X042051Y003112D02*
X043850Y003112D01*
X043850Y003270D02*
X042307Y003270D01*
X042450Y003429D02*
X043850Y003429D01*
X043850Y003587D02*
X042516Y003587D01*
X042560Y003746D02*
X043850Y003746D01*
X043850Y003904D02*
X042560Y003904D01*
X042537Y004063D02*
X043850Y004063D01*
X043850Y004221D02*
X042471Y004221D01*
X042358Y004380D02*
X043850Y004380D01*
X043850Y004538D02*
X042173Y004538D01*
X040709Y003112D02*
X040610Y003112D01*
X040610Y002953D02*
X043850Y002953D01*
X043850Y002795D02*
X043304Y002795D01*
X043551Y002636D02*
X043850Y002636D01*
X043850Y002478D02*
X043707Y002478D01*
X043798Y002319D02*
X043850Y002319D01*
X043850Y001368D02*
X043791Y001368D01*
X043850Y001210D02*
X043696Y001210D01*
X043850Y001051D02*
X043538Y001051D01*
X043281Y000893D02*
X043850Y000893D01*
X043850Y000734D02*
X005280Y000734D01*
X005280Y000576D02*
X043850Y000576D01*
X039150Y002953D02*
X032860Y002953D01*
X034551Y003112D02*
X037709Y003112D01*
X037453Y003270D02*
X034807Y003270D01*
X034950Y003429D02*
X037309Y003429D01*
X037244Y003587D02*
X035016Y003587D01*
X035060Y003746D02*
X037200Y003746D01*
X037200Y003904D02*
X035060Y003904D01*
X035037Y004063D02*
X037223Y004063D01*
X037289Y004221D02*
X034971Y004221D01*
X034858Y004380D02*
X037402Y004380D01*
X037587Y004538D02*
X034673Y004538D01*
X034698Y005172D02*
X037562Y005172D01*
X037392Y005331D02*
X034868Y005331D01*
X034976Y005489D02*
X037284Y005489D01*
X037219Y005648D02*
X035041Y005648D01*
X035060Y005806D02*
X037200Y005806D01*
X037200Y005965D02*
X035060Y005965D01*
X035012Y006123D02*
X037248Y006123D01*
X037314Y006282D02*
X034946Y006282D01*
X034797Y006440D02*
X037463Y006440D01*
X037733Y006599D02*
X034527Y006599D01*
X034427Y007060D02*
X033333Y007060D01*
X033043Y007180D01*
X032820Y007403D01*
X032700Y007693D01*
X032700Y008007D01*
X032820Y008297D01*
X033043Y008520D01*
X033333Y008640D01*
X034427Y008640D01*
X034717Y008520D01*
X034940Y008297D01*
X035060Y008007D01*
X035060Y007693D01*
X034940Y007403D01*
X034717Y007180D01*
X034427Y007060D01*
X034461Y007074D02*
X037799Y007074D01*
X037833Y007060D02*
X038927Y007060D01*
X039217Y007180D01*
X039440Y007403D01*
X039560Y007693D01*
X039560Y008007D01*
X039440Y008297D01*
X039217Y008520D01*
X038927Y008640D01*
X037833Y008640D01*
X037543Y008520D01*
X037320Y008297D01*
X037200Y008007D01*
X037200Y007693D01*
X037320Y007403D01*
X037543Y007180D01*
X037833Y007060D01*
X037490Y007233D02*
X034770Y007233D01*
X034928Y007391D02*
X037332Y007391D01*
X037259Y007550D02*
X035001Y007550D01*
X035060Y007708D02*
X037200Y007708D01*
X037200Y007867D02*
X035060Y007867D01*
X035053Y008025D02*
X037207Y008025D01*
X037273Y008184D02*
X034987Y008184D01*
X034895Y008342D02*
X037365Y008342D01*
X037523Y008501D02*
X034737Y008501D01*
X033023Y008501D02*
X031737Y008501D01*
X031717Y008520D02*
X031427Y008640D01*
X030333Y008640D01*
X030043Y008520D01*
X029820Y008297D01*
X029700Y008007D01*
X029700Y007693D01*
X029820Y007403D01*
X030043Y007180D01*
X030333Y007060D01*
X031427Y007060D01*
X031717Y007180D01*
X031940Y007403D01*
X032060Y007693D01*
X032060Y008007D01*
X031940Y008297D01*
X031717Y008520D01*
X031895Y008342D02*
X032865Y008342D01*
X032773Y008184D02*
X031987Y008184D01*
X032053Y008025D02*
X032707Y008025D01*
X032700Y007867D02*
X032060Y007867D01*
X032060Y007708D02*
X032700Y007708D01*
X032759Y007550D02*
X032001Y007550D01*
X031928Y007391D02*
X032832Y007391D01*
X032990Y007233D02*
X031770Y007233D01*
X031461Y007074D02*
X033299Y007074D01*
X033233Y006599D02*
X031527Y006599D01*
X030233Y006599D02*
X028440Y006599D01*
X028440Y006440D02*
X029963Y006440D01*
X029814Y006282D02*
X028440Y006282D01*
X028440Y006123D02*
X029748Y006123D01*
X029700Y005965D02*
X028440Y005965D01*
X028440Y005806D02*
X029700Y005806D01*
X029719Y005648D02*
X028440Y005648D01*
X028440Y005489D02*
X029784Y005489D01*
X029892Y005331D02*
X028440Y005331D01*
X028440Y005172D02*
X030062Y005172D01*
X030087Y004538D02*
X028110Y004538D01*
X028268Y004697D02*
X031400Y004697D01*
X031400Y004855D02*
X028385Y004855D01*
X028440Y005014D02*
X031400Y005014D01*
X029902Y004380D02*
X027951Y004380D01*
X027885Y004313D02*
X027885Y004313D01*
X027793Y004221D02*
X029789Y004221D01*
X029723Y004063D02*
X027417Y004063D01*
X027334Y003904D02*
X029700Y003904D01*
X029700Y003746D02*
X027330Y003746D01*
X027330Y003587D02*
X029744Y003587D01*
X029809Y003429D02*
X027330Y003429D01*
X027330Y003270D02*
X029953Y003270D01*
X030209Y003112D02*
X027330Y003112D01*
X027330Y002953D02*
X031400Y002953D01*
X030857Y002795D02*
X027335Y002795D01*
X027417Y002636D02*
X030626Y002636D01*
X030508Y002478D02*
X027470Y002478D01*
X027470Y002319D02*
X030442Y002319D01*
X030430Y002161D02*
X027470Y002161D01*
X027470Y002002D02*
X030430Y002002D01*
X030430Y001844D02*
X027470Y001844D01*
X027470Y001685D02*
X030430Y001685D01*
X030430Y001527D02*
X027427Y001527D01*
X027358Y001368D02*
X030448Y001368D01*
X030513Y001210D02*
X027199Y001210D01*
X026341Y001210D02*
X007446Y001210D01*
X007288Y001051D02*
X030639Y001051D01*
X030888Y000893D02*
X007031Y000893D01*
X006229Y000893D02*
X005280Y000893D01*
X005280Y001051D02*
X005972Y001051D01*
X005814Y001210D02*
X005280Y001210D01*
X005280Y001368D02*
X005719Y001368D01*
X005650Y001527D02*
X005280Y001527D01*
X005280Y001685D02*
X005608Y001685D01*
X005600Y001844D02*
X005280Y001844D01*
X005280Y002002D02*
X005604Y002002D01*
X005647Y002161D02*
X005280Y002161D01*
X005280Y002319D02*
X005712Y002319D01*
X005803Y002478D02*
X005280Y002478D01*
X005280Y002636D02*
X005959Y002636D01*
X006206Y002795D02*
X005280Y002795D01*
X005280Y002953D02*
X012383Y002953D01*
X012380Y003112D02*
X005280Y003112D01*
X005280Y003270D02*
X006170Y003270D01*
X006012Y003429D02*
X005280Y003429D01*
X005280Y003587D02*
X005931Y003587D01*
X005880Y003746D02*
X005280Y003746D01*
X005280Y003904D02*
X005880Y003904D01*
X005910Y004063D02*
X005280Y004063D01*
X005280Y004221D02*
X005976Y004221D01*
X006061Y004380D02*
X005280Y004380D01*
X005280Y004538D02*
X005952Y004538D01*
X005886Y004697D02*
X005280Y004697D01*
X005280Y004855D02*
X005880Y004855D01*
X005890Y005014D02*
X005280Y005014D01*
X005280Y005172D02*
X005956Y005172D01*
X006071Y005331D02*
X005280Y005331D01*
X005280Y005489D02*
X005972Y005489D01*
X005906Y005648D02*
X005280Y005648D01*
X005280Y005806D02*
X005880Y005806D01*
X005880Y005965D02*
X005280Y005965D01*
X005280Y006123D02*
X005815Y006123D01*
X005657Y006282D02*
X005280Y006282D01*
X005280Y006440D02*
X005498Y006440D01*
X005378Y006599D02*
X005280Y006599D01*
X005280Y006757D02*
X005320Y006757D01*
X005320Y006916D02*
X005280Y006916D01*
X005280Y007074D02*
X005320Y007074D01*
X005320Y007233D02*
X005280Y007233D01*
X005280Y007391D02*
X005320Y007391D01*
X005320Y007550D02*
X005280Y007550D01*
X005280Y007708D02*
X005320Y007708D01*
X005320Y007867D02*
X005280Y007867D01*
X005280Y008025D02*
X005320Y008025D01*
X005320Y008184D02*
X005280Y008184D01*
X005280Y008342D02*
X005320Y008342D01*
X005320Y008501D02*
X005280Y008501D01*
X005280Y008659D02*
X005320Y008659D01*
X005320Y008818D02*
X005280Y008818D01*
X005280Y008976D02*
X005320Y008976D01*
X005320Y009135D02*
X005280Y009135D01*
X005280Y009293D02*
X005320Y009293D01*
X005320Y009452D02*
X005280Y009452D01*
X005280Y009610D02*
X005320Y009610D01*
X005320Y009769D02*
X005280Y009769D01*
X005280Y009927D02*
X005320Y009927D01*
X005320Y010086D02*
X005280Y010086D01*
X005280Y010244D02*
X005320Y010244D01*
X005320Y010403D02*
X005280Y010403D01*
X005280Y010561D02*
X005320Y010561D01*
X005320Y010720D02*
X005280Y010720D01*
X005280Y010878D02*
X005320Y010878D01*
X005320Y011037D02*
X005280Y011037D01*
X005280Y011195D02*
X005320Y011195D01*
X005320Y011354D02*
X005280Y011354D01*
X005280Y011512D02*
X005320Y011512D01*
X005320Y011671D02*
X005280Y011671D01*
X005280Y011829D02*
X005320Y011829D01*
X005320Y011988D02*
X005280Y011988D01*
X005280Y012146D02*
X005320Y012146D01*
X005320Y012305D02*
X005280Y012305D01*
X005280Y012463D02*
X005320Y012463D01*
X005320Y012622D02*
X005280Y012622D01*
X005280Y012780D02*
X005320Y012780D01*
X005320Y012939D02*
X005280Y012939D01*
X005280Y013097D02*
X005320Y013097D01*
X005320Y013256D02*
X005280Y013256D01*
X005280Y013414D02*
X005320Y013414D01*
X005320Y013573D02*
X005280Y013573D01*
X005280Y013731D02*
X005320Y013731D01*
X005320Y013890D02*
X005280Y013890D01*
X005280Y014048D02*
X005320Y014048D01*
X005320Y014207D02*
X005280Y014207D01*
X005280Y014365D02*
X005320Y014365D01*
X005320Y014524D02*
X005280Y014524D01*
X005280Y014682D02*
X005320Y014682D01*
X005320Y014841D02*
X005280Y014841D01*
X005280Y014999D02*
X005320Y014999D01*
X005320Y015158D02*
X005280Y015158D01*
X005280Y015316D02*
X005320Y015316D01*
X005320Y015475D02*
X005280Y015475D01*
X005280Y015633D02*
X005320Y015633D01*
X005320Y015792D02*
X005280Y015792D01*
X005280Y015950D02*
X005320Y015950D01*
X005320Y016109D02*
X005280Y016109D01*
X005280Y016267D02*
X005320Y016267D01*
X005320Y016426D02*
X005280Y016426D01*
X005280Y016584D02*
X005320Y016584D01*
X005320Y016743D02*
X005280Y016743D01*
X005280Y016901D02*
X005320Y016901D01*
X005320Y017060D02*
X005280Y017060D01*
X005280Y017218D02*
X005320Y017218D01*
X005320Y017377D02*
X005280Y017377D01*
X005280Y017535D02*
X005320Y017535D01*
X005320Y017694D02*
X005280Y017694D01*
X005280Y017852D02*
X005320Y017852D01*
X005340Y018011D02*
X005280Y018011D01*
X005280Y018169D02*
X005407Y018169D01*
X005280Y018328D02*
X005566Y018328D01*
X005724Y018486D02*
X005280Y018486D01*
X005280Y018645D02*
X005883Y018645D01*
X005880Y018803D02*
X005280Y018803D01*
X005280Y018962D02*
X005880Y018962D01*
X005934Y019120D02*
X005280Y019120D01*
X005280Y019279D02*
X006019Y019279D01*
X006003Y019437D02*
X005280Y019437D01*
X005280Y019596D02*
X005928Y019596D01*
X005880Y019754D02*
X005280Y019754D01*
X005280Y019913D02*
X005880Y019913D01*
X005914Y020071D02*
X005280Y020071D01*
X005280Y020230D02*
X005980Y020230D01*
X006052Y020388D02*
X005280Y020388D01*
X005280Y020547D02*
X005948Y020547D01*
X005882Y020705D02*
X005280Y020705D01*
X005280Y020864D02*
X005880Y020864D01*
X005894Y021022D02*
X005280Y021022D01*
X005280Y021181D02*
X005959Y021181D01*
X006079Y021339D02*
X005280Y021339D01*
X005280Y021498D02*
X006254Y021498D01*
X006140Y021656D02*
X005280Y021656D01*
X005280Y021815D02*
X006100Y021815D01*
X006115Y021973D02*
X005280Y021973D01*
X005280Y022132D02*
X006191Y022132D01*
X006386Y022290D02*
X005280Y022290D01*
X005280Y022449D02*
X012566Y022449D01*
X012566Y022607D02*
X005280Y022607D01*
X005280Y022766D02*
X006293Y022766D01*
X006451Y022700D02*
X006809Y022700D01*
X007140Y022837D01*
X007393Y023090D01*
X007530Y023421D01*
X007530Y023779D01*
X007393Y024110D01*
X007140Y024363D01*
X006809Y024500D01*
X006451Y024500D01*
X006120Y024363D01*
X005867Y024110D01*
X005730Y023779D01*
X005730Y023421D01*
X005867Y023090D01*
X006120Y022837D01*
X006451Y022700D01*
X006033Y022924D02*
X005280Y022924D01*
X005280Y023083D02*
X005875Y023083D01*
X005805Y023241D02*
X005280Y023241D01*
X005280Y023400D02*
X005739Y023400D01*
X005730Y023558D02*
X005280Y023558D01*
X005280Y023717D02*
X005730Y023717D01*
X005770Y023875D02*
X005280Y023875D01*
X005280Y024034D02*
X005835Y024034D01*
X005949Y024192D02*
X005280Y024192D01*
X005280Y024351D02*
X006108Y024351D01*
X006120Y024837D02*
X006451Y024700D01*
X006809Y024700D01*
X007140Y024837D01*
X007393Y025090D01*
X007530Y025421D01*
X007530Y025779D01*
X007393Y026110D01*
X007140Y026363D01*
X006809Y026500D01*
X006451Y026500D01*
X006120Y026363D01*
X005867Y026110D01*
X005730Y025779D01*
X005730Y025421D01*
X005867Y025090D01*
X006120Y024837D01*
X006147Y024826D02*
X005280Y024826D01*
X005280Y024668D02*
X010758Y024668D01*
X010758Y024826D02*
X007113Y024826D01*
X007287Y024985D02*
X010758Y024985D01*
X010758Y025143D02*
X007415Y025143D01*
X007481Y025302D02*
X010780Y025302D01*
X010846Y025460D02*
X007530Y025460D01*
X007530Y025619D02*
X010942Y025619D01*
X011101Y025777D02*
X007530Y025777D01*
X007465Y025936D02*
X011434Y025936D01*
X011826Y025936D02*
X012930Y025936D01*
X012597Y025777D02*
X012159Y025777D01*
X012318Y025619D02*
X012438Y025619D01*
X013322Y025936D02*
X014426Y025936D01*
X014093Y025777D02*
X013655Y025777D01*
X013814Y025619D02*
X013934Y025619D01*
X014819Y025936D02*
X019487Y025936D01*
X019383Y025777D02*
X017444Y025777D01*
X017551Y025619D02*
X020110Y025619D01*
X020150Y025619D02*
X021320Y025619D01*
X021478Y025460D02*
X020889Y025460D01*
X020806Y025302D02*
X021637Y025302D01*
X021795Y025143D02*
X020877Y025143D01*
X021028Y024985D02*
X021954Y024985D01*
X022070Y024826D02*
X021094Y024826D01*
X021130Y024668D02*
X022070Y024668D01*
X022070Y024509D02*
X021130Y024509D01*
X021084Y024351D02*
X022070Y024351D01*
X022070Y024192D02*
X021012Y024192D01*
X020986Y024034D02*
X022070Y024034D01*
X022070Y023875D02*
X021074Y023875D01*
X021130Y023717D02*
X022070Y023717D01*
X022070Y023558D02*
X021130Y023558D01*
X021105Y023400D02*
X022070Y023400D01*
X022070Y023241D02*
X021039Y023241D01*
X020902Y023083D02*
X022135Y023083D01*
X022264Y022924D02*
X020690Y022924D01*
X020690Y022766D02*
X022423Y022766D01*
X022313Y022875D02*
X022313Y022875D01*
X022581Y022607D02*
X020690Y022607D01*
X020690Y022449D02*
X022740Y022449D01*
X022898Y022290D02*
X020690Y022290D01*
X020690Y022132D02*
X023032Y022132D01*
X023073Y021973D02*
X020690Y021973D01*
X020690Y021815D02*
X020883Y021815D01*
X020794Y021656D02*
X020656Y021656D01*
X020569Y021498D02*
X020782Y021498D01*
X020782Y021339D02*
X020411Y021339D01*
X020447Y021375D02*
X020447Y021375D01*
X020252Y021181D02*
X020782Y021181D01*
X020803Y021022D02*
X020094Y021022D01*
X019935Y020864D02*
X020905Y020864D01*
X021233Y020705D02*
X019777Y020705D01*
X019618Y020547D02*
X021392Y020547D01*
X021550Y020388D02*
X019794Y020388D01*
X020042Y020230D02*
X021570Y020230D01*
X021570Y020071D02*
X020201Y020071D01*
X020359Y019913D02*
X021570Y019913D01*
X021570Y019754D02*
X020518Y019754D01*
X020676Y019596D02*
X021570Y019596D01*
X021570Y019437D02*
X020835Y019437D01*
X020993Y019279D02*
X021570Y019279D01*
X021532Y019120D02*
X021152Y019120D01*
X021310Y018962D02*
X021532Y018962D01*
X021532Y018803D02*
X021469Y018803D01*
X022690Y020230D02*
X024128Y020230D01*
X023970Y020388D02*
X022690Y020388D01*
X022690Y020547D02*
X023940Y020547D01*
X023940Y020705D02*
X022690Y020705D01*
X022627Y020864D02*
X024021Y020864D01*
X024180Y021022D02*
X022500Y021022D01*
X021877Y021815D02*
X023204Y021815D01*
X024056Y021815D02*
X036954Y021815D01*
X036823Y021973D02*
X024187Y021973D01*
X024228Y022132D02*
X036782Y022132D01*
X036782Y022290D02*
X024228Y022290D01*
X024228Y022449D02*
X036782Y022449D01*
X036782Y022607D02*
X024228Y022607D01*
X024171Y022766D02*
X036839Y022766D01*
X037044Y022924D02*
X023966Y022924D01*
X023689Y023083D02*
X043850Y023083D01*
X043850Y023241D02*
X023531Y023241D01*
X023372Y023400D02*
X043850Y023400D01*
X043850Y023558D02*
X023214Y023558D01*
X023190Y023717D02*
X043850Y023717D01*
X043850Y023875D02*
X023190Y023875D01*
X023190Y024034D02*
X043850Y024034D01*
X043850Y024192D02*
X023190Y024192D01*
X023190Y024351D02*
X043850Y024351D01*
X043850Y024509D02*
X023190Y024509D01*
X023190Y024668D02*
X043850Y024668D01*
X043850Y024826D02*
X023190Y024826D01*
X023190Y024985D02*
X043850Y024985D01*
X043850Y025143D02*
X023190Y025143D01*
X023153Y025302D02*
X043850Y025302D01*
X043850Y025460D02*
X023062Y025460D01*
X022903Y025619D02*
X043850Y025619D01*
X043850Y025777D02*
X022745Y025777D01*
X022586Y025936D02*
X043850Y025936D01*
X043850Y026094D02*
X022428Y026094D01*
X022269Y026253D02*
X043850Y026253D01*
X043850Y026411D02*
X022111Y026411D01*
X021952Y026570D02*
X043850Y026570D01*
X043850Y026728D02*
X021794Y026728D01*
X021635Y026887D02*
X043850Y026887D01*
X043850Y027045D02*
X021477Y027045D01*
X020690Y027204D02*
X043850Y027204D01*
X043850Y027362D02*
X020690Y027362D01*
X020665Y027521D02*
X043850Y027521D01*
X043850Y027679D02*
X020593Y027679D01*
X020434Y027838D02*
X043850Y027838D01*
X043850Y027996D02*
X020276Y027996D01*
X020117Y028155D02*
X043850Y028155D01*
X043850Y028313D02*
X019959Y028313D01*
X020416Y028472D02*
X020660Y028472D01*
X020951Y028472D02*
X021327Y028472D01*
X023187Y028472D02*
X023439Y028472D01*
X023979Y028472D02*
X024231Y028472D01*
X025168Y028472D02*
X025682Y028472D01*
X025461Y028630D02*
X025389Y028630D01*
X026355Y028472D02*
X043850Y028472D01*
X043850Y028630D02*
X026576Y028630D01*
X026647Y028789D02*
X043850Y028789D01*
X043850Y028947D02*
X026651Y028947D01*
X026651Y029106D02*
X042362Y029106D01*
X042232Y029140D02*
X042494Y029070D01*
X042766Y029070D01*
X043028Y029140D01*
X043262Y029276D01*
X043454Y029468D01*
X043590Y029702D01*
X043660Y029964D01*
X043660Y030236D01*
X043590Y030498D01*
X043454Y030732D01*
X043262Y030924D01*
X043028Y031060D01*
X042766Y031130D01*
X042494Y031130D01*
X042232Y031060D01*
X041998Y030924D01*
X041806Y030732D01*
X041670Y030498D01*
X041600Y030236D01*
X041600Y029964D01*
X041670Y029702D01*
X041806Y029468D01*
X041998Y029276D01*
X042232Y029140D01*
X042018Y029264D02*
X026651Y029264D01*
X026651Y029423D02*
X041851Y029423D01*
X041740Y029581D02*
X026651Y029581D01*
X027586Y029740D02*
X028411Y029740D01*
X028220Y029898D02*
X027782Y029898D01*
X027920Y030057D02*
X028158Y030057D01*
X028158Y030215D02*
X027971Y030215D01*
X027971Y030374D02*
X028158Y030374D01*
X028158Y030532D02*
X027971Y030532D01*
X027940Y030691D02*
X028158Y030691D01*
X028158Y030849D02*
X027832Y030849D01*
X027674Y031008D02*
X028158Y031008D01*
X028158Y031012D02*
X028158Y031012D01*
X028221Y031166D02*
X027380Y031166D01*
X028775Y029740D02*
X028938Y029740D01*
X029302Y029740D02*
X029334Y029740D01*
X030358Y029740D02*
X030521Y029740D01*
X031150Y029740D02*
X031313Y029740D01*
X031942Y029740D02*
X032105Y029740D01*
X032469Y029740D02*
X032502Y029740D01*
X033129Y029740D02*
X033162Y029740D01*
X034581Y029740D02*
X035405Y029740D01*
X036033Y029740D02*
X036065Y029740D01*
X036561Y029740D02*
X036725Y029740D01*
X037089Y029740D02*
X037253Y029740D01*
X037749Y029740D02*
X041660Y029740D01*
X041618Y029898D02*
X037940Y029898D01*
X038002Y030057D02*
X041600Y030057D01*
X041600Y030215D02*
X038002Y030215D01*
X037994Y030374D02*
X041637Y030374D01*
X041690Y030532D02*
X037917Y030532D01*
X037681Y030691D02*
X041782Y030691D01*
X041923Y030849D02*
X037605Y030849D01*
X037605Y031008D02*
X042142Y031008D01*
X043118Y031008D02*
X043850Y031008D01*
X043850Y031166D02*
X037542Y031166D01*
X042898Y029106D02*
X043850Y029106D01*
X043850Y029264D02*
X043242Y029264D01*
X043409Y029423D02*
X043850Y029423D01*
X043850Y029581D02*
X043520Y029581D01*
X043600Y029740D02*
X043850Y029740D01*
X043850Y029898D02*
X043642Y029898D01*
X043660Y030057D02*
X043850Y030057D01*
X043850Y030215D02*
X043660Y030215D01*
X043623Y030374D02*
X043850Y030374D01*
X043850Y030532D02*
X043570Y030532D01*
X043478Y030691D02*
X043850Y030691D01*
X043850Y030849D02*
X043337Y030849D01*
X043850Y022924D02*
X037716Y022924D01*
X037921Y022766D02*
X043850Y022766D01*
X043850Y022607D02*
X037978Y022607D01*
X038073Y022449D02*
X043850Y022449D01*
X043850Y022290D02*
X038232Y022290D01*
X038370Y022132D02*
X043850Y022132D01*
X043850Y021973D02*
X038435Y021973D01*
X038440Y021815D02*
X043850Y021815D01*
X038215Y017694D02*
X038179Y017694D01*
X038179Y017535D02*
X038215Y017535D01*
X038215Y017377D02*
X038179Y017377D01*
X038568Y017377D02*
X038696Y017377D01*
X031515Y015475D02*
X031190Y015475D01*
X024814Y015950D02*
X023376Y015950D01*
X023310Y015792D02*
X024656Y015792D01*
X019570Y014999D02*
X014380Y014999D01*
X014380Y015158D02*
X018611Y015158D01*
X018534Y015316D02*
X014348Y015316D01*
X014283Y015475D02*
X018464Y015475D01*
X018305Y015633D02*
X014203Y015633D01*
X014310Y015792D02*
X018147Y015792D01*
X017988Y015950D02*
X014376Y015950D01*
X014380Y016109D02*
X017830Y016109D01*
X017671Y016267D02*
X014368Y016267D01*
X014303Y016426D02*
X017513Y016426D01*
X019570Y014841D02*
X014330Y014841D01*
X014252Y014682D02*
X019570Y014682D01*
X019570Y014524D02*
X014246Y014524D01*
X014328Y014365D02*
X019570Y014365D01*
X019570Y014207D02*
X014380Y014207D01*
X014380Y014048D02*
X019570Y014048D01*
X019570Y013890D02*
X014350Y013890D01*
X014285Y013731D02*
X019570Y013731D01*
X019570Y013573D02*
X014197Y013573D01*
X014308Y013414D02*
X019570Y013414D01*
X019570Y013256D02*
X014373Y013256D01*
X014380Y013097D02*
X019570Y013097D01*
X019570Y012939D02*
X014371Y012939D01*
X014305Y012780D02*
X019570Y012780D01*
X019570Y012622D02*
X014191Y012622D01*
X014287Y012463D02*
X019570Y012463D01*
X019570Y012305D02*
X014353Y012305D01*
X014380Y012146D02*
X019570Y012146D01*
X019570Y011988D02*
X014380Y011988D01*
X014325Y011829D02*
X019570Y011829D01*
X019570Y011671D02*
X014240Y011671D01*
X014258Y011512D02*
X019570Y011512D01*
X019570Y011354D02*
X014333Y011354D01*
X014380Y011195D02*
X019570Y011195D01*
X019570Y011037D02*
X014380Y011037D01*
X014346Y010878D02*
X019570Y010878D01*
X019570Y010720D02*
X014280Y010720D01*
X014209Y010561D02*
X019570Y010561D01*
X019570Y010403D02*
X014312Y010403D01*
X014378Y010244D02*
X019570Y010244D01*
X019570Y010086D02*
X014380Y010086D01*
X014366Y009927D02*
X019570Y009927D01*
X019570Y009769D02*
X014300Y009769D01*
X014180Y009610D02*
X019570Y009610D01*
X019570Y009452D02*
X014292Y009452D01*
X014358Y009293D02*
X019570Y009293D01*
X019570Y009135D02*
X014380Y009135D01*
X014380Y008976D02*
X019570Y008976D01*
X019570Y008818D02*
X014321Y008818D01*
X014229Y008659D02*
X019570Y008659D01*
X019570Y008501D02*
X014269Y008501D01*
X014337Y008342D02*
X019532Y008342D01*
X019532Y008184D02*
X014380Y008184D01*
X014380Y008025D02*
X019532Y008025D01*
X019532Y007867D02*
X014341Y007867D01*
X014275Y007708D02*
X019579Y007708D01*
X019737Y007550D02*
X014220Y007550D01*
X014317Y007391D02*
X020320Y007391D01*
X020320Y007233D02*
X014380Y007233D01*
X014380Y007074D02*
X020320Y007074D01*
X020320Y006916D02*
X014361Y006916D01*
X014296Y006757D02*
X020320Y006757D01*
X020320Y006599D02*
X014171Y006599D01*
X014297Y006440D02*
X020320Y006440D01*
X020320Y006282D02*
X014362Y006282D01*
X014380Y006123D02*
X020320Y006123D01*
X020320Y005965D02*
X014380Y005965D01*
X014316Y005806D02*
X020320Y005806D01*
X020320Y005648D02*
X014217Y005648D01*
X014277Y005489D02*
X020320Y005489D01*
X020320Y005331D02*
X014342Y005331D01*
X014380Y005172D02*
X020320Y005172D01*
X020320Y005014D02*
X014380Y005014D01*
X014336Y004855D02*
X020320Y004855D01*
X020320Y004697D02*
X014266Y004697D01*
X014108Y004538D02*
X020320Y004538D01*
X020320Y004380D02*
X014070Y004380D01*
X014145Y004221D02*
X020320Y004221D01*
X020320Y004063D02*
X014160Y004063D01*
X014119Y003904D02*
X020320Y003904D01*
X020320Y003746D02*
X014004Y003746D01*
X014183Y003587D02*
X020383Y003587D01*
X020510Y003429D02*
X014302Y003429D01*
X014367Y003270D02*
X020668Y003270D01*
X020827Y003112D02*
X014380Y003112D01*
X014377Y002953D02*
X020985Y002953D01*
X021144Y002795D02*
X014311Y002795D01*
X014206Y002636D02*
X021302Y002636D01*
X021754Y002478D02*
X014006Y002478D01*
X012754Y002478D02*
X012104Y002478D01*
X012110Y002319D02*
X024510Y002319D01*
X024510Y002161D02*
X012110Y002161D01*
X012110Y002002D02*
X024510Y002002D01*
X024510Y001844D02*
X012110Y001844D01*
X012097Y001685D02*
X024517Y001685D01*
X024575Y001527D02*
X012025Y001527D01*
X011650Y001527D02*
X011610Y001527D01*
X011610Y001685D02*
X011650Y001685D01*
X011650Y001844D02*
X011610Y001844D01*
X011610Y002002D02*
X011650Y002002D01*
X011650Y002161D02*
X011610Y002161D01*
X011610Y002319D02*
X011650Y002319D01*
X011650Y002478D02*
X011610Y002478D01*
X011610Y002636D02*
X011650Y002636D01*
X011650Y002795D02*
X011610Y002795D01*
X011356Y002795D02*
X010904Y002795D01*
X011048Y002636D02*
X011212Y002636D01*
X011156Y002478D02*
X011104Y002478D01*
X011110Y002319D02*
X011150Y002319D01*
X011150Y002161D02*
X011110Y002161D01*
X011110Y002002D02*
X011150Y002002D01*
X011150Y001844D02*
X011110Y001844D01*
X011097Y001685D02*
X011163Y001685D01*
X011235Y001527D02*
X011025Y001527D01*
X012048Y002636D02*
X012554Y002636D01*
X012449Y002795D02*
X011904Y002795D01*
X012393Y003270D02*
X007590Y003270D01*
X007748Y003429D02*
X012458Y003429D01*
X012577Y003587D02*
X010050Y003587D01*
X009903Y003440D02*
X009357Y003440D01*
X008970Y003827D01*
X008970Y004373D01*
X009137Y004540D01*
X009019Y004540D01*
X008813Y004625D01*
X008313Y005125D01*
X008155Y005283D01*
X008070Y005489D01*
X007788Y005489D01*
X007854Y005648D02*
X008070Y005648D01*
X008070Y005806D02*
X007880Y005806D01*
X007880Y005965D02*
X008070Y005965D01*
X008070Y006123D02*
X007825Y006123D01*
X007738Y006282D02*
X008070Y006282D01*
X008070Y006337D02*
X008070Y005489D01*
X008135Y005331D02*
X007689Y005331D01*
X007804Y005172D02*
X008266Y005172D01*
X008425Y005014D02*
X007870Y005014D01*
X007880Y004855D02*
X008583Y004855D01*
X008742Y004697D02*
X007874Y004697D01*
X007808Y004538D02*
X009135Y004538D01*
X008976Y004380D02*
X007699Y004380D01*
X007784Y004221D02*
X008970Y004221D01*
X008970Y004063D02*
X007850Y004063D01*
X007880Y003904D02*
X008970Y003904D01*
X009051Y003746D02*
X007880Y003746D01*
X007829Y003587D02*
X009210Y003587D01*
X009903Y003440D02*
X010290Y003827D01*
X010290Y004373D01*
X010063Y004600D01*
X010290Y004827D01*
X010290Y005373D01*
X009903Y005760D01*
X009357Y005760D01*
X009309Y005713D01*
X009190Y005832D01*
X009190Y005994D01*
X009516Y006320D01*
X009755Y006320D01*
X009902Y006381D01*
X010014Y006493D01*
X010075Y006641D01*
X010075Y007311D01*
X010014Y007458D01*
X009902Y007571D01*
X009855Y007590D01*
X009855Y007676D01*
X009428Y007676D01*
X009428Y007772D01*
X009855Y007772D01*
X009855Y008004D01*
X009843Y008049D01*
X009819Y008090D01*
X009786Y008124D01*
X009745Y008148D01*
X009699Y008160D01*
X009428Y008160D01*
X009428Y007772D01*
X009332Y007772D01*
X009332Y007676D01*
X008905Y007676D01*
X008905Y007590D01*
X008858Y007571D01*
X008746Y007458D01*
X008685Y007311D01*
X008685Y007073D01*
X008155Y006543D01*
X008070Y006337D01*
X008113Y006440D02*
X007580Y006440D01*
X008211Y006599D02*
X006923Y006599D01*
X006765Y006757D02*
X008369Y006757D01*
X008528Y006916D02*
X006606Y006916D01*
X006448Y007074D02*
X008685Y007074D01*
X008685Y007233D02*
X006440Y007233D01*
X006440Y007391D02*
X008718Y007391D01*
X008837Y007550D02*
X006440Y007550D01*
X007459Y007708D02*
X009332Y007708D01*
X009332Y007772D02*
X008905Y007772D01*
X008905Y008004D01*
X008917Y008049D01*
X008941Y008090D01*
X008974Y008124D01*
X009015Y008148D01*
X009061Y008160D01*
X009332Y008160D01*
X009332Y007772D01*
X009332Y007867D02*
X009428Y007867D01*
X009428Y008025D02*
X009332Y008025D01*
X009428Y007708D02*
X010730Y007708D01*
X010572Y007867D02*
X009855Y007867D01*
X009850Y008025D02*
X010413Y008025D01*
X010255Y008184D02*
X007869Y008184D01*
X007880Y008342D02*
X008955Y008342D01*
X008796Y008501D02*
X007875Y008501D01*
X007810Y008659D02*
X008720Y008659D01*
X008720Y008818D02*
X007702Y008818D01*
X007783Y008976D02*
X008720Y008976D01*
X008731Y009135D02*
X007848Y009135D01*
X007880Y009293D02*
X008890Y009293D01*
X008845Y009452D02*
X007880Y009452D01*
X007830Y009610D02*
X008720Y009610D01*
X008720Y009769D02*
X007751Y009769D01*
X007747Y009927D02*
X008720Y009927D01*
X008720Y010086D02*
X007828Y010086D01*
X007880Y010244D02*
X008841Y010244D01*
X008999Y010403D02*
X007880Y010403D01*
X007850Y010561D02*
X009176Y010561D01*
X009054Y010720D02*
X008958Y010720D01*
X008958Y010625D02*
X008958Y011052D01*
X008570Y011052D01*
X008570Y010781D01*
X008582Y010735D01*
X008606Y010694D01*
X008640Y010661D01*
X008681Y010637D01*
X008726Y010625D01*
X008958Y010625D01*
X008958Y010878D02*
X009054Y010878D01*
X009054Y011037D02*
X008958Y011037D01*
X008958Y011195D02*
X009054Y011195D01*
X009054Y011354D02*
X008958Y011354D01*
X008958Y011512D02*
X009054Y011512D01*
X009208Y011671D02*
X006440Y011671D01*
X006440Y011829D02*
X012435Y011829D01*
X012380Y011988D02*
X006440Y011988D01*
X006440Y012146D02*
X012380Y012146D01*
X012520Y011671D02*
X010300Y011671D01*
X010395Y011512D02*
X012502Y011512D01*
X012427Y011354D02*
X010410Y011354D01*
X010451Y011195D02*
X012380Y011195D01*
X012380Y011037D02*
X010607Y011037D01*
X010672Y010878D02*
X012414Y010878D01*
X012480Y010720D02*
X010690Y010720D01*
X010690Y010561D02*
X012551Y010561D01*
X012448Y010403D02*
X010690Y010403D01*
X010690Y010244D02*
X012382Y010244D01*
X012380Y010086D02*
X010627Y010086D01*
X010499Y009927D02*
X012394Y009927D01*
X012460Y009769D02*
X010340Y009769D01*
X010182Y009610D02*
X012580Y009610D01*
X012468Y009452D02*
X010023Y009452D01*
X010729Y009293D02*
X012402Y009293D01*
X012380Y009135D02*
X010887Y009135D01*
X011046Y008976D02*
X012380Y008976D01*
X012439Y008818D02*
X011204Y008818D01*
X011363Y008659D02*
X012531Y008659D01*
X012491Y008501D02*
X011521Y008501D01*
X011680Y008342D02*
X012423Y008342D01*
X012380Y008184D02*
X011838Y008184D01*
X011997Y008025D02*
X012380Y008025D01*
X012419Y007867D02*
X012155Y007867D01*
X012314Y007708D02*
X012485Y007708D01*
X011681Y006757D02*
X010075Y006757D01*
X010075Y006916D02*
X011523Y006916D01*
X011364Y007074D02*
X010075Y007074D01*
X010075Y007233D02*
X011206Y007233D01*
X011047Y007391D02*
X010042Y007391D01*
X009923Y007550D02*
X010889Y007550D01*
X010058Y006599D02*
X011877Y006599D01*
X012398Y006282D02*
X009477Y006282D01*
X009319Y006123D02*
X012380Y006123D01*
X012380Y005965D02*
X009190Y005965D01*
X009216Y005806D02*
X012444Y005806D01*
X012543Y005648D02*
X010016Y005648D01*
X010174Y005489D02*
X012483Y005489D01*
X012418Y005331D02*
X010290Y005331D01*
X010290Y005172D02*
X012380Y005172D01*
X012380Y005014D02*
X010290Y005014D01*
X010290Y004855D02*
X012424Y004855D01*
X012494Y004697D02*
X010160Y004697D01*
X010125Y004538D02*
X012652Y004538D01*
X012690Y004380D02*
X010284Y004380D01*
X010290Y004221D02*
X012615Y004221D01*
X012600Y004063D02*
X010290Y004063D01*
X010290Y003904D02*
X012641Y003904D01*
X012756Y003746D02*
X010209Y003746D01*
X009961Y006440D02*
X012463Y006440D01*
X008905Y007867D02*
X007686Y007867D01*
X007803Y008025D02*
X008910Y008025D01*
X008591Y010720D02*
X007785Y010720D01*
X007642Y010878D02*
X008570Y010878D01*
X008570Y011037D02*
X007352Y011037D01*
X006440Y011195D02*
X008570Y011195D01*
X008570Y011354D02*
X006440Y011354D01*
X006440Y011512D02*
X008612Y011512D01*
X008435Y012305D02*
X006440Y012305D01*
X006440Y012463D02*
X008355Y012463D01*
X008350Y012622D02*
X006440Y012622D01*
X007600Y012780D02*
X008284Y012780D01*
X008274Y015910D02*
X007610Y015910D01*
X007577Y015943D01*
X007488Y015980D01*
X007493Y015984D01*
X007546Y016037D01*
X007591Y016098D01*
X007625Y016166D01*
X007648Y016238D01*
X007660Y016312D01*
X007660Y016330D01*
X006900Y016330D01*
X006900Y016370D01*
X006860Y016370D01*
X006860Y016830D01*
X006542Y016830D01*
X006468Y016818D01*
X006440Y016809D01*
X006440Y017618D01*
X006972Y018150D01*
X007319Y018150D01*
X007577Y018257D01*
X007773Y018453D01*
X007880Y018711D01*
X007880Y018989D01*
X007773Y019247D01*
X007730Y019290D01*
X009024Y019290D01*
X009100Y019214D01*
X009100Y018975D01*
X009161Y018828D01*
X009196Y018793D01*
X009196Y018613D01*
X009281Y018407D01*
X009439Y018249D01*
X010063Y017625D01*
X010269Y017540D01*
X010782Y017540D01*
X010782Y017072D01*
X010820Y016980D01*
X010820Y016582D01*
X010648Y016410D01*
X010311Y016410D01*
X010237Y016484D01*
X010089Y016545D01*
X009419Y016545D01*
X009380Y016529D01*
X009341Y016545D01*
X008671Y016545D01*
X008523Y016484D01*
X008411Y016372D01*
X008350Y016225D01*
X008350Y015986D01*
X008274Y015910D01*
X008314Y015950D02*
X007561Y015950D01*
X007596Y016109D02*
X008350Y016109D01*
X008368Y016267D02*
X007653Y016267D01*
X007660Y016370D02*
X007660Y016388D01*
X007648Y016462D01*
X007625Y016534D01*
X007591Y016602D01*
X007546Y016663D01*
X007493Y016716D01*
X007432Y016761D01*
X007364Y016795D01*
X007292Y016818D01*
X007218Y016830D01*
X006900Y016830D01*
X006900Y016370D01*
X007660Y016370D01*
X007654Y016426D02*
X008465Y016426D01*
X007599Y016584D02*
X010820Y016584D01*
X010820Y016743D02*
X007456Y016743D01*
X006900Y016743D02*
X006860Y016743D01*
X006860Y016584D02*
X006900Y016584D01*
X006900Y016426D02*
X006860Y016426D01*
X006440Y016901D02*
X010820Y016901D01*
X010787Y017060D02*
X006440Y017060D01*
X006440Y017218D02*
X010782Y017218D01*
X010782Y017377D02*
X006440Y017377D01*
X006440Y017535D02*
X010782Y017535D01*
X009995Y017694D02*
X006515Y017694D01*
X006674Y017852D02*
X009836Y017852D01*
X009678Y018011D02*
X006832Y018011D01*
X007365Y018169D02*
X009519Y018169D01*
X009361Y018328D02*
X007647Y018328D01*
X007787Y018486D02*
X009248Y018486D01*
X009196Y018645D02*
X007853Y018645D01*
X007880Y018803D02*
X009186Y018803D01*
X009106Y018962D02*
X007880Y018962D01*
X007826Y019120D02*
X009100Y019120D01*
X009035Y019279D02*
X007741Y019279D01*
X007812Y020547D02*
X012566Y020547D01*
X012566Y020705D02*
X007878Y020705D01*
X007880Y020864D02*
X012566Y020864D01*
X012566Y021022D02*
X007866Y021022D01*
X007801Y021181D02*
X012566Y021181D01*
X012566Y021339D02*
X007681Y021339D01*
X007506Y021498D02*
X012566Y021498D01*
X012566Y021656D02*
X007620Y021656D01*
X007660Y021815D02*
X012566Y021815D01*
X012566Y021973D02*
X007645Y021973D01*
X007648Y021962D02*
X007625Y022034D01*
X007591Y022102D01*
X007546Y022163D01*
X007493Y022216D01*
X007432Y022261D01*
X007364Y022295D01*
X007292Y022318D01*
X007218Y022330D01*
X006900Y022330D01*
X006900Y021870D01*
X007660Y021870D01*
X007660Y021888D01*
X007648Y021962D01*
X007569Y022132D02*
X012566Y022132D01*
X012566Y022290D02*
X007374Y022290D01*
X006900Y022290D02*
X006860Y022290D01*
X006860Y022132D02*
X006900Y022132D01*
X006900Y021973D02*
X006860Y021973D01*
X006967Y022766D02*
X012566Y022766D01*
X012566Y022924D02*
X007227Y022924D01*
X007385Y023083D02*
X012566Y023083D01*
X012566Y023241D02*
X007455Y023241D01*
X007521Y023400D02*
X011124Y023400D01*
X010966Y023558D02*
X007530Y023558D01*
X007530Y023717D02*
X010856Y023717D01*
X010790Y023875D02*
X007490Y023875D01*
X007425Y024034D02*
X010758Y024034D01*
X010758Y024192D02*
X007311Y024192D01*
X007152Y024351D02*
X010758Y024351D01*
X010758Y024509D02*
X005280Y024509D01*
X005280Y024985D02*
X005973Y024985D01*
X005845Y025143D02*
X005280Y025143D01*
X005280Y025302D02*
X005779Y025302D01*
X005730Y025460D02*
X005280Y025460D01*
X005280Y025619D02*
X005730Y025619D01*
X005730Y025777D02*
X005280Y025777D01*
X005280Y025936D02*
X005795Y025936D01*
X005860Y026094D02*
X005280Y026094D01*
X005280Y026253D02*
X006010Y026253D01*
X006236Y026411D02*
X005280Y026411D01*
X005280Y026570D02*
X007449Y026570D01*
X007321Y026728D02*
X005280Y026728D01*
X005280Y026887D02*
X007282Y026887D01*
X007282Y027045D02*
X005280Y027045D01*
X005280Y027204D02*
X007282Y027204D01*
X007282Y027362D02*
X005280Y027362D01*
X005280Y027521D02*
X007341Y027521D01*
X007556Y027679D02*
X005280Y027679D01*
X005280Y027838D02*
X008685Y027838D01*
X008685Y027996D02*
X005280Y027996D01*
X005280Y028155D02*
X008685Y028155D01*
X008686Y028313D02*
X005280Y028313D01*
X005280Y028472D02*
X008761Y028472D01*
X009534Y028630D02*
X005280Y028630D01*
X005280Y028789D02*
X009881Y028789D01*
X009881Y028947D02*
X005280Y028947D01*
X005280Y029106D02*
X009881Y029106D01*
X009881Y029264D02*
X005280Y029264D01*
X005280Y029423D02*
X005677Y029423D01*
X005442Y029581D02*
X005280Y029581D01*
X005280Y029740D02*
X005293Y029740D01*
X006583Y029423D02*
X009881Y029423D01*
X009821Y029581D02*
X006818Y029581D01*
X006967Y029740D02*
X009765Y029740D01*
X009765Y029898D02*
X007058Y029898D01*
X007118Y030057D02*
X009795Y030057D01*
X009861Y030215D02*
X007160Y030215D01*
X007160Y030374D02*
X010009Y030374D01*
X010873Y030374D02*
X011387Y030374D01*
X011239Y030215D02*
X011021Y030215D01*
X011087Y030057D02*
X011173Y030057D01*
X011143Y029898D02*
X011117Y029898D01*
X011117Y029740D02*
X011143Y029740D01*
X011199Y029581D02*
X011061Y029581D01*
X011001Y029423D02*
X011259Y029423D01*
X011259Y029264D02*
X011001Y029264D01*
X011001Y029106D02*
X011259Y029106D01*
X011259Y028947D02*
X011001Y028947D01*
X011001Y028789D02*
X011259Y028789D01*
X011259Y028630D02*
X011255Y028630D01*
X011108Y028569D01*
X011011Y028472D02*
X011001Y028472D01*
X010935Y027996D02*
X010879Y027996D01*
X010935Y027838D02*
X010667Y027838D01*
X010935Y027679D02*
X010187Y027679D01*
X010075Y027521D02*
X010984Y027521D01*
X011149Y027362D02*
X010075Y027362D01*
X010075Y027204D02*
X011582Y027204D01*
X011678Y027204D02*
X019484Y027204D01*
X019570Y027045D02*
X012105Y027045D01*
X012105Y026946D02*
X012105Y027178D01*
X011678Y027178D01*
X011678Y026790D01*
X011949Y026790D01*
X011995Y026802D01*
X012036Y026826D01*
X012069Y026860D01*
X012093Y026901D01*
X012105Y026946D01*
X012085Y026887D02*
X019570Y026887D01*
X019570Y026728D02*
X009999Y026728D01*
X010074Y026887D02*
X011175Y026887D01*
X011155Y027045D02*
X010075Y027045D01*
X009563Y026570D02*
X019570Y026570D01*
X019602Y026411D02*
X007024Y026411D01*
X007250Y026253D02*
X019685Y026253D01*
X019888Y026094D02*
X007400Y026094D01*
X008204Y027679D02*
X008685Y027679D01*
X011582Y027045D02*
X011678Y027045D01*
X011678Y026887D02*
X011582Y026887D01*
X012111Y027362D02*
X019326Y027362D01*
X019167Y027521D02*
X012276Y027521D01*
X012379Y028789D02*
X012984Y028789D01*
X012980Y028947D02*
X012379Y028947D01*
X012379Y029106D02*
X012980Y029106D01*
X012980Y029264D02*
X012379Y029264D01*
X012379Y029423D02*
X012980Y029423D01*
X012980Y029581D02*
X012439Y029581D01*
X012495Y029740D02*
X012980Y029740D01*
X013036Y029898D02*
X012495Y029898D01*
X012465Y030057D02*
X013031Y030057D01*
X012980Y030215D02*
X012399Y030215D01*
X012251Y030374D02*
X012980Y030374D01*
X012980Y030532D02*
X007147Y030532D01*
X007105Y030691D02*
X012980Y030691D01*
X012980Y030849D02*
X007031Y030849D01*
X006929Y031008D02*
X013033Y031008D01*
X013172Y031166D02*
X006770Y031166D01*
X015495Y024509D02*
X016832Y024509D01*
X016928Y024509D02*
X019130Y024509D01*
X019130Y024668D02*
X017440Y024668D01*
X017549Y024826D02*
X019166Y024826D01*
X019232Y024985D02*
X017575Y024985D01*
X017575Y025143D02*
X019383Y025143D01*
X019454Y025302D02*
X017575Y025302D01*
X017575Y025460D02*
X019371Y025460D01*
X020773Y025936D02*
X021003Y025936D01*
X020877Y025777D02*
X021161Y025777D01*
X019176Y024351D02*
X017355Y024351D01*
X017355Y024428D02*
X017355Y024196D01*
X017343Y024151D01*
X017319Y024110D01*
X017286Y024076D01*
X017245Y024052D01*
X017199Y024040D01*
X016928Y024040D01*
X016928Y024428D01*
X017355Y024428D01*
X017354Y024192D02*
X019248Y024192D01*
X019274Y024034D02*
X015495Y024034D01*
X015495Y024192D02*
X016406Y024192D01*
X016405Y024351D02*
X015495Y024351D01*
X015462Y023875D02*
X019186Y023875D01*
X019130Y023717D02*
X015396Y023717D01*
X015287Y023558D02*
X019130Y023558D01*
X019155Y023400D02*
X015128Y023400D01*
X015529Y023241D02*
X015731Y023241D01*
X016529Y023241D02*
X016731Y023241D01*
X017529Y023241D02*
X017731Y023241D01*
X018529Y023241D02*
X019221Y023241D01*
X019358Y023083D02*
X018687Y023083D01*
X018774Y022924D02*
X019570Y022924D01*
X019570Y022766D02*
X018830Y022766D01*
X018830Y022607D02*
X019570Y022607D01*
X019570Y022449D02*
X018830Y022449D01*
X018830Y022290D02*
X019570Y022290D01*
X019570Y022132D02*
X018830Y022132D01*
X018830Y021973D02*
X019461Y021973D01*
X019303Y021815D02*
X018790Y021815D01*
X018724Y021656D02*
X019144Y021656D01*
X018986Y021498D02*
X018567Y021498D01*
X018827Y021339D02*
X013686Y021339D01*
X013686Y021498D02*
X013693Y021498D01*
X014200Y021181D02*
X018669Y021181D01*
X017693Y021498D02*
X017567Y021498D01*
X016693Y021498D02*
X016567Y021498D01*
X015693Y021498D02*
X015567Y021498D01*
X014693Y021498D02*
X014567Y021498D01*
X012566Y020388D02*
X009420Y020388D01*
X009668Y020230D02*
X012566Y020230D01*
X012566Y020071D02*
X009827Y020071D01*
X011058Y019913D02*
X011766Y019913D01*
X011584Y019754D02*
X011148Y019754D01*
X011160Y019596D02*
X011532Y019596D01*
X011532Y019437D02*
X011209Y019437D01*
X011367Y019279D02*
X011532Y019279D01*
X012494Y019913D02*
X012566Y019913D01*
X012566Y023400D02*
X012136Y023400D01*
X012294Y023558D02*
X012462Y023558D01*
X016832Y024192D02*
X016928Y024192D01*
X016928Y024351D02*
X016832Y024351D01*
X010664Y016426D02*
X010295Y016426D01*
X021440Y011368D02*
X021440Y010384D01*
X021487Y010497D01*
X021683Y010693D01*
X021772Y010730D01*
X021767Y010734D01*
X021714Y010787D01*
X021669Y010848D01*
X021635Y010916D01*
X021612Y010988D01*
X021600Y011062D01*
X021600Y011080D01*
X022360Y011080D01*
X022360Y011120D01*
X021600Y011120D01*
X021600Y011138D01*
X021612Y011212D01*
X021635Y011284D01*
X021669Y011352D01*
X021714Y011413D01*
X021767Y011466D01*
X021772Y011470D01*
X021683Y011507D01*
X021650Y011540D01*
X021612Y011540D01*
X021440Y011368D01*
X021440Y011354D02*
X021671Y011354D01*
X021678Y011512D02*
X021584Y011512D01*
X021609Y011195D02*
X021440Y011195D01*
X021440Y011037D02*
X021604Y011037D01*
X021654Y010878D02*
X021440Y010878D01*
X021440Y010720D02*
X021746Y010720D01*
X021551Y010561D02*
X021440Y010561D01*
X021440Y010403D02*
X021448Y010403D01*
X028064Y008501D02*
X030023Y008501D01*
X029865Y008342D02*
X028064Y008342D01*
X028064Y008184D02*
X029773Y008184D01*
X029707Y008025D02*
X028064Y008025D01*
X028064Y007867D02*
X029700Y007867D01*
X029700Y007708D02*
X028064Y007708D01*
X028129Y007550D02*
X029759Y007550D01*
X029832Y007391D02*
X028160Y007391D01*
X028163Y007233D02*
X029990Y007233D01*
X030299Y007074D02*
X028322Y007074D01*
X028197Y007199D02*
X028197Y007199D01*
X026113Y005172D02*
X025405Y005172D01*
X025438Y005331D02*
X025255Y005331D01*
X025010Y005331D02*
X024970Y005331D01*
X024970Y005172D02*
X025010Y005172D01*
X025010Y005014D02*
X024970Y005014D01*
X024970Y004855D02*
X025010Y004855D01*
X025010Y004697D02*
X024970Y004697D01*
X025010Y004610D02*
X025470Y004610D01*
X025470Y004292D01*
X025458Y004218D01*
X025435Y004146D01*
X025401Y004078D01*
X025356Y004017D01*
X025303Y003964D01*
X025242Y003919D01*
X025174Y003885D01*
X025102Y003862D01*
X025028Y003850D01*
X025010Y003850D01*
X025010Y004610D01*
X025010Y004538D02*
X024970Y004538D01*
X024970Y004380D02*
X025010Y004380D01*
X025010Y004221D02*
X024970Y004221D01*
X024970Y004063D02*
X025010Y004063D01*
X025010Y003904D02*
X024970Y003904D01*
X025211Y003904D02*
X026206Y003904D01*
X026123Y004063D02*
X025389Y004063D01*
X025459Y004221D02*
X026070Y004221D01*
X026070Y004380D02*
X025470Y004380D01*
X025470Y004538D02*
X026070Y004538D01*
X026070Y004697D02*
X025470Y004697D01*
X025470Y004855D02*
X026070Y004855D01*
X026070Y005014D02*
X025463Y005014D01*
X025214Y002795D02*
X026205Y002795D01*
X026123Y002636D02*
X025390Y002636D01*
X025459Y002478D02*
X026070Y002478D01*
X026070Y002319D02*
X025470Y002319D01*
X025470Y002161D02*
X026070Y002161D01*
X026070Y002002D02*
X025470Y002002D01*
X025470Y001844D02*
X026070Y001844D01*
X026070Y001685D02*
X025463Y001685D01*
X025405Y001527D02*
X026113Y001527D01*
X026182Y001368D02*
X025253Y001368D01*
X022360Y004080D02*
X021600Y004080D01*
X021600Y004062D01*
X021612Y003988D01*
X021635Y003916D01*
X021665Y003857D01*
X021440Y004082D01*
X021440Y004816D01*
X021487Y004703D01*
X021683Y004507D01*
X021772Y004470D01*
X021767Y004466D01*
X021714Y004413D01*
X021669Y004352D01*
X021635Y004284D01*
X021612Y004212D01*
X021600Y004138D01*
X021600Y004120D01*
X022360Y004120D01*
X022360Y004080D01*
X021690Y004380D02*
X021440Y004380D01*
X021440Y004538D02*
X021652Y004538D01*
X021494Y004697D02*
X021440Y004697D01*
X021440Y004221D02*
X021615Y004221D01*
X021600Y004063D02*
X021459Y004063D01*
X021618Y003904D02*
X021641Y003904D01*
X031372Y000893D02*
X031888Y000893D01*
X031639Y001051D02*
X031621Y001051D01*
X032372Y000893D02*
X032888Y000893D01*
X032639Y001051D02*
X032621Y001051D01*
X039051Y003112D02*
X039150Y003112D01*
X039027Y006599D02*
X040733Y006599D01*
X040799Y007074D02*
X038961Y007074D01*
X039270Y007233D02*
X040490Y007233D01*
X040332Y007391D02*
X039428Y007391D01*
X039501Y007550D02*
X040259Y007550D01*
X040200Y007708D02*
X039560Y007708D01*
X039560Y007867D02*
X040200Y007867D01*
X040207Y008025D02*
X039553Y008025D01*
X039487Y008184D02*
X040273Y008184D01*
X040365Y008342D02*
X039395Y008342D01*
X039237Y008501D02*
X040523Y008501D01*
D26*
X039880Y005850D02*
X041380Y005850D01*
X038380Y005850D01*
X039880Y005850D02*
X039880Y001850D01*
X033880Y005850D02*
X030880Y005850D01*
X032130Y005850D02*
X033880Y005850D01*
X032130Y005850D02*
X032130Y001850D01*
M02*
