%
M48
M72
T01C0.0240
T02C0.0315
T03C0.0320
T04C0.0400
T05C0.0520
T06C0.0630
%
T01
X17970Y17809
X27470Y14809
X28970Y15309
X34470Y15809
X34970Y16309
X35470Y16809
X34470Y13809
X30470Y6809
X30970Y6309
X19470Y4809
X18970Y6809
X30470Y21809
X30970Y27309
X32470Y27309
X34470Y30309
T02
X38470Y30498
X38470Y29120
T03
X17970Y20809
X16970Y20809
X17470Y13809
X17470Y12809
X17470Y6309
X17470Y5309
X36970Y6309
X36970Y7309
X36970Y3309
X36970Y2309
T04
X31970Y3309
X31970Y4309
X31970Y5309
X31970Y6309
X31970Y7309
X31970Y8309
X31970Y9309
X31970Y10309
X31970Y11309
X31970Y12309
X31970Y13309
X31970Y14309
X31970Y15309
X31970Y16309
X31970Y17309
X38470Y17809
X38470Y16809
X38470Y15809
X38470Y14809
X38470Y12309
X38470Y11309
X38470Y10309
X38470Y9309
X38470Y8309
X38470Y22309
X38470Y23309
X38470Y24309
X38470Y25309
X25750Y29419
X25750Y31199
X23190Y31199
X23190Y29419
X23970Y25809
X23970Y24809
X23970Y23809
X22970Y17309
X22970Y16309
X22970Y15309
X22970Y14309
X22970Y13309
X22970Y12309
X22970Y11309
X22970Y10309
X22970Y9309
X22970Y8309
X22970Y7309
X22970Y6309
X22970Y5309
X22970Y4309
X22970Y3309
X1470Y5309
X1470Y6309
X1470Y7309
X1470Y12309
X1470Y13309
X1470Y14309
T05
X3970Y3809
X5970Y3809
X7970Y3809
X7970Y6809
X5970Y6809
X3970Y6809
X3970Y11309
X5970Y11309
X7970Y11309
X7970Y14309
X5970Y14309
X3970Y14309
X13970Y14309
X13970Y11309
X13970Y6809
X13970Y3809
T06
X31970Y21809
X31970Y23809
X31970Y25809
X30970Y31809
X32970Y31809
M30
